<svg xmlns="http://www.w3.org/2000/svg" xmlns:xlink="http://www.w3.org/1999/xlink" width="185" height="58" viewBox="0 0 185 58">
  <defs>
    <filter id="パス_862" x="0" y="0" width="185" height="58" filterUnits="userSpaceOnUse">
      <feOffset dy="3" input="SourceAlpha"/>
      <feGaussianBlur stdDeviation="3" result="blur"/>
      <feFlood flood-opacity="0.161"/>
      <feComposite operator="in" in2="blur"/>
      <feComposite in="SourceGraphic"/>
    </filter>
  </defs>
  <g transform="matrix(1, 0, 0, 1, 0, 0)" filter="url(#パス_862)">
    <g id="パス_862-2" data-name="パス 862" transform="translate(-20 6)" fill="#fff">
      <path d="M 195.1261749267578 39.5 L 29.92216491699219 39.5 L 42.10990142822266 20.77981185913086 L 42.28308868408203 20.51379203796387 L 42.11604690551758 20.24387550354004 L 29.89743614196777 0.5 L 195.1454315185547 0.5 L 184.0730743408203 20.20222854614258 L 183.9322509765625 20.45274925231934 L 184.077880859375 20.70052146911621 L 195.1261749267578 39.5 Z" stroke="none"/>
      <path d="M 30.79487609863281 1 L 42.54122924804688 19.98076057434082 L 42.87528991699219 20.52058601379395 L 42.52891540527344 21.05260848999023 L 30.84431457519531 39 L 194.2523803710938 39 L 183.6468200683594 20.9538688659668 L 183.3555908203125 20.45834732055664 L 183.6371765136719 19.95728302001953 L 194.2908935546875 1 L 30.79487609863281 1 M 29 0 L 195.9999694824219 0 L 184.5089416503906 20.44719505310059 L 195.9999694824219 40 L 29 40 L 41.69087219238281 20.50699996948242 L 29 0 Z" stroke="none" fill="#b50003"/>
    </g>
  </g>
</svg>
