<svg xmlns="http://www.w3.org/2000/svg" width="242.807" height="212" viewBox="0 0 242.807 212">
  <g id="グループ_603" data-name="グループ 603" transform="translate(-30.96 -52.998)">
    <rect id="長方形_291" data-name="長方形 291" width="5.038" height="5.038" rx="2.519" transform="translate(217.32 52.998)" fill="#69c"/>
    <rect id="長方形_292" data-name="長方形 292" width="5.038" height="5.038" rx="2.519" transform="translate(223.746 52.998)" fill="#69c"/>
    <rect id="長方形_293" data-name="長方形 293" width="5.038" height="5.038" rx="2.519" transform="translate(230.173 52.998)" fill="#69c"/>
    <rect id="長方形_294" data-name="長方形 294" width="5.038" height="5.038" rx="2.519" transform="translate(236.599 52.998)" fill="#69c"/>
    <rect id="長方形_295" data-name="長方形 295" width="5.038" height="5.038" rx="2.519" transform="translate(217.32 59.295)" fill="#69c"/>
    <rect id="長方形_296" data-name="長方形 296" width="5.038" height="5.038" rx="2.519" transform="translate(223.746 59.295)" fill="#69c"/>
    <rect id="長方形_297" data-name="長方形 297" width="5.038" height="5.038" rx="2.519" transform="translate(230.173 59.295)" fill="#69c"/>
    <rect id="長方形_298" data-name="長方形 298" width="5.038" height="5.038" rx="2.519" transform="translate(236.599 59.295)" fill="#69c"/>
    <rect id="長方形_299" data-name="長方形 299" width="5.038" height="5.038" rx="2.519" transform="translate(243.025 59.295)" fill="#69c"/>
    <rect id="長方形_300" data-name="長方形 300" width="5.038" height="5.038" rx="2.519" transform="translate(217.32 65.592)" fill="#69c"/>
    <rect id="長方形_301" data-name="長方形 301" width="5.038" height="5.038" rx="2.519" transform="translate(223.746 65.592)" fill="#69c"/>
    <rect id="長方形_302" data-name="長方形 302" width="5.038" height="5.038" rx="2.519" transform="translate(230.173 65.592)" fill="#69c"/>
    <rect id="長方形_303" data-name="長方形 303" width="5.038" height="5.038" rx="2.519" transform="translate(236.599 65.592)" fill="#69c"/>
    <rect id="長方形_304" data-name="長方形 304" width="5.038" height="5.038" rx="2.519" transform="translate(243.025 65.592)" fill="#69c"/>
    <rect id="長方形_305" data-name="長方形 305" width="5.038" height="5.038" rx="2.519" transform="translate(249.451 65.592)" fill="#69c"/>
    <rect id="長方形_306" data-name="長方形 306" width="5.038" height="5.038" rx="2.519" transform="translate(217.32 71.889)" fill="#69c"/>
    <rect id="長方形_307" data-name="長方形 307" width="5.038" height="5.038" rx="2.519" transform="translate(223.746 71.889)" fill="#69c"/>
    <rect id="長方形_308" data-name="長方形 308" width="5.038" height="5.038" rx="2.519" transform="translate(230.173 71.889)" fill="#69c"/>
    <rect id="長方形_309" data-name="長方形 309" width="5.038" height="5.038" rx="2.519" transform="translate(236.599 71.889)" fill="#69c"/>
    <rect id="長方形_310" data-name="長方形 310" width="5.038" height="5.038" rx="2.519" transform="translate(243.025 71.889)" fill="#69c"/>
    <rect id="長方形_311" data-name="長方形 311" width="5.038" height="5.038" rx="2.519" transform="translate(249.451 71.889)" fill="#69c"/>
    <rect id="長方形_312" data-name="長方形 312" width="5.038" height="5.038" rx="2.519" transform="translate(255.877 71.889)" fill="#69c"/>
    <rect id="長方形_313" data-name="長方形 313" width="5.038" height="5.038" rx="2.519" transform="translate(217.32 78.186)" fill="#69c"/>
    <rect id="長方形_314" data-name="長方形 314" width="5.038" height="5.038" rx="2.519" transform="translate(223.746 78.186)" fill="#69c"/>
    <rect id="長方形_315" data-name="長方形 315" width="5.038" height="5.038" rx="2.519" transform="translate(230.173 78.186)" fill="#69c"/>
    <rect id="長方形_316" data-name="長方形 316" width="5.038" height="5.038" rx="2.519" transform="translate(236.599 78.186)" fill="#69c"/>
    <rect id="長方形_317" data-name="長方形 317" width="5.038" height="5.038" rx="2.519" transform="translate(243.025 78.186)" fill="#69c"/>
    <rect id="長方形_318" data-name="長方形 318" width="5.038" height="5.038" rx="2.519" transform="translate(249.451 78.186)" fill="#69c"/>
    <rect id="長方形_319" data-name="長方形 319" width="5.038" height="5.038" rx="2.519" transform="translate(255.877 78.186)" fill="#69c"/>
    <rect id="長方形_320" data-name="長方形 320" width="5.038" height="5.038" rx="2.519" transform="translate(262.303 78.186)" fill="#69c"/>
    <rect id="長方形_321" data-name="長方形 321" width="5.038" height="5.038" rx="2.519" transform="translate(268.73 78.186)" fill="#69c"/>
    <rect id="長方形_322" data-name="長方形 322" width="5.038" height="5.038" rx="2.519" transform="translate(210.894 84.483)" fill="#69c"/>
    <rect id="長方形_323" data-name="長方形 323" width="5.038" height="5.038" rx="2.519" transform="translate(217.32 84.483)" fill="#69c"/>
    <rect id="長方形_324" data-name="長方形 324" width="5.038" height="5.038" rx="2.519" transform="translate(223.746 84.483)" fill="#69c"/>
    <rect id="長方形_325" data-name="長方形 325" width="5.038" height="5.038" rx="2.519" transform="translate(230.173 84.483)" fill="#69c"/>
    <rect id="長方形_326" data-name="長方形 326" width="5.038" height="5.038" rx="2.519" transform="translate(236.599 84.483)" fill="#69c"/>
    <rect id="長方形_327" data-name="長方形 327" width="5.038" height="5.038" rx="2.519" transform="translate(243.025 84.483)" fill="#69c"/>
    <rect id="長方形_328" data-name="長方形 328" width="5.038" height="5.038" rx="2.519" transform="translate(249.451 84.483)" fill="#69c"/>
    <rect id="長方形_329" data-name="長方形 329" width="5.038" height="5.038" rx="2.519" transform="translate(255.877 84.483)" fill="#69c"/>
    <rect id="長方形_330" data-name="長方形 330" width="5.038" height="5.038" rx="2.519" transform="translate(262.303 84.483)" fill="#69c"/>
    <rect id="長方形_331" data-name="長方形 331" width="5.038" height="5.038" rx="2.519" transform="translate(268.73 84.483)" fill="#69c"/>
    <rect id="長方形_332" data-name="長方形 332" width="5.038" height="5.038" rx="2.519" transform="translate(204.468 90.78)" fill="#69c"/>
    <rect id="長方形_333" data-name="長方形 333" width="5.038" height="5.038" rx="2.519" transform="translate(210.894 90.78)" fill="#69c"/>
    <rect id="長方形_334" data-name="長方形 334" width="5.038" height="5.038" rx="2.519" transform="translate(217.32 90.78)" fill="#69c"/>
    <rect id="長方形_335" data-name="長方形 335" width="5.038" height="5.038" rx="2.519" transform="translate(223.746 90.78)" fill="#69c"/>
    <rect id="長方形_336" data-name="長方形 336" width="5.038" height="5.038" rx="2.519" transform="translate(230.173 90.78)" fill="#69c"/>
    <rect id="長方形_337" data-name="長方形 337" width="5.038" height="5.038" rx="2.519" transform="translate(236.599 90.78)" fill="#69c"/>
    <rect id="長方形_338" data-name="長方形 338" width="5.038" height="5.038" rx="2.519" transform="translate(243.025 90.78)" fill="#69c"/>
    <rect id="長方形_339" data-name="長方形 339" width="5.038" height="5.038" rx="2.519" transform="translate(249.451 90.78)" fill="#69c"/>
    <rect id="長方形_340" data-name="長方形 340" width="5.038" height="5.038" rx="2.519" transform="translate(255.877 90.78)" fill="#69c"/>
    <rect id="長方形_341" data-name="長方形 341" width="5.038" height="5.038" rx="2.519" transform="translate(262.303 90.78)" fill="#69c"/>
    <rect id="長方形_342" data-name="長方形 342" width="5.038" height="5.038" rx="2.519" transform="translate(268.73 90.78)" fill="#69c"/>
    <rect id="長方形_343" data-name="長方形 343" width="5.038" height="5.038" rx="2.519" transform="translate(204.468 97.077)" fill="#69c"/>
    <rect id="長方形_344" data-name="長方形 344" width="5.038" height="5.038" rx="2.519" transform="translate(210.894 97.077)" fill="#69c"/>
    <rect id="長方形_345" data-name="長方形 345" width="5.038" height="5.038" rx="2.519" transform="translate(217.32 97.077)" fill="#69c"/>
    <rect id="長方形_346" data-name="長方形 346" width="5.038" height="5.038" rx="2.519" transform="translate(236.599 97.077)" fill="#69c"/>
    <rect id="長方形_347" data-name="長方形 347" width="5.038" height="5.038" rx="2.519" transform="translate(243.025 97.077)" fill="#69c"/>
    <rect id="長方形_348" data-name="長方形 348" width="5.038" height="5.038" rx="2.519" transform="translate(249.451 97.077)" fill="#69c"/>
    <rect id="長方形_349" data-name="長方形 349" width="5.038" height="5.038" rx="2.519" transform="translate(223.746 109.671)" fill="#52bbd1"/>
    <rect id="長方形_350" data-name="長方形 350" width="5.038" height="5.038" rx="2.519" transform="translate(230.173 109.671)" fill="#52bbd1"/>
    <rect id="長方形_351" data-name="長方形 351" width="5.038" height="5.038" rx="2.519" transform="translate(204.468 115.968)" fill="#52bbd1"/>
    <rect id="長方形_352" data-name="長方形 352" width="5.038" height="5.038" rx="2.519" transform="translate(210.894 115.968)" fill="#52bbd1"/>
    <rect id="長方形_353" data-name="長方形 353" width="5.038" height="5.038" rx="2.519" transform="translate(217.32 115.968)" fill="#52bbd1"/>
    <rect id="長方形_354" data-name="長方形 354" width="5.038" height="5.038" rx="2.519" transform="translate(223.746 115.968)" fill="#52bbd1"/>
    <rect id="長方形_355" data-name="長方形 355" width="5.038" height="5.038" rx="2.519" transform="translate(230.173 115.968)" fill="#52bbd1"/>
    <rect id="長方形_356" data-name="長方形 356" width="5.038" height="5.038" rx="2.519" transform="translate(204.468 122.265)" fill="#52bbd1"/>
    <rect id="長方形_357" data-name="長方形 357" width="5.038" height="5.038" rx="2.519" transform="translate(210.894 122.265)" fill="#52bbd1"/>
    <rect id="長方形_358" data-name="長方形 358" width="5.038" height="5.038" rx="2.519" transform="translate(217.32 122.265)" fill="#52bbd1"/>
    <rect id="長方形_359" data-name="長方形 359" width="5.038" height="5.038" rx="2.519" transform="translate(223.746 122.265)" fill="#52bbd1"/>
    <rect id="長方形_360" data-name="長方形 360" width="5.038" height="5.038" rx="2.519" transform="translate(230.173 122.265)" fill="#52bbd1"/>
    <rect id="長方形_361" data-name="長方形 361" width="5.038" height="5.038" rx="2.519" transform="translate(236.599 122.265)" fill="#52bbd1"/>
    <rect id="長方形_362" data-name="長方形 362" width="5.038" height="5.038" rx="2.519" transform="translate(204.468 128.562)" fill="#52bbd1"/>
    <rect id="長方形_363" data-name="長方形 363" width="5.038" height="5.038" rx="2.519" transform="translate(210.894 128.562)" fill="#52bbd1"/>
    <rect id="長方形_364" data-name="長方形 364" width="5.038" height="5.038" rx="2.519" transform="translate(217.32 128.562)" fill="#52bbd1"/>
    <rect id="長方形_365" data-name="長方形 365" width="5.038" height="5.038" rx="2.519" transform="translate(223.746 128.562)" fill="#52bbd1"/>
    <rect id="長方形_366" data-name="長方形 366" width="5.038" height="5.038" rx="2.519" transform="translate(230.173 128.562)" fill="#52bbd1"/>
    <rect id="長方形_367" data-name="長方形 367" width="5.038" height="5.038" rx="2.519" transform="translate(236.599 128.562)" fill="#52bbd1"/>
    <rect id="長方形_368" data-name="長方形 368" width="5.038" height="5.038" rx="2.519" transform="translate(204.468 134.859)" fill="#52bbd1"/>
    <rect id="長方形_369" data-name="長方形 369" width="5.038" height="5.038" rx="2.519" transform="translate(210.894 134.859)" fill="#52bbd1"/>
    <rect id="長方形_370" data-name="長方形 370" width="5.038" height="5.038" rx="2.519" transform="translate(217.32 134.859)" fill="#52bbd1"/>
    <rect id="長方形_371" data-name="長方形 371" width="5.038" height="5.038" rx="2.519" transform="translate(223.746 134.859)" fill="#52bbd1"/>
    <rect id="長方形_372" data-name="長方形 372" width="5.038" height="5.038" rx="2.519" transform="translate(230.173 134.859)" fill="#52bbd1"/>
    <rect id="長方形_373" data-name="長方形 373" width="5.038" height="5.038" rx="2.519" transform="translate(236.599 134.859)" fill="#52bbd1"/>
    <rect id="長方形_374" data-name="長方形 374" width="5.038" height="5.038" rx="2.519" transform="translate(204.468 140.736)" fill="#52bbd1"/>
    <rect id="長方形_375" data-name="長方形 375" width="5.038" height="5.038" rx="2.519" transform="translate(210.894 140.736)" fill="#52bbd1"/>
    <rect id="長方形_376" data-name="長方形 376" width="5.038" height="5.038" rx="2.519" transform="translate(217.32 140.736)" fill="#52bbd1"/>
    <rect id="長方形_377" data-name="長方形 377" width="5.038" height="5.038" rx="2.519" transform="translate(223.746 140.736)" fill="#52bbd1"/>
    <rect id="長方形_378" data-name="長方形 378" width="5.038" height="5.038" rx="2.519" transform="translate(230.173 140.736)" fill="#52bbd1"/>
    <rect id="長方形_379" data-name="長方形 379" width="5.038" height="5.038" rx="2.519" transform="translate(236.599 140.736)" fill="#52bbd1"/>
    <rect id="長方形_380" data-name="長方形 380" width="5.038" height="5.038" rx="2.519" transform="translate(204.468 147.033)" fill="#52bbd1"/>
    <rect id="長方形_381" data-name="長方形 381" width="5.038" height="5.038" rx="2.519" transform="translate(210.894 147.033)" fill="#52bbd1"/>
    <rect id="長方形_382" data-name="長方形 382" width="5.038" height="5.038" rx="2.519" transform="translate(217.32 147.033)" fill="#52bbd1"/>
    <rect id="長方形_383" data-name="長方形 383" width="5.038" height="5.038" rx="2.519" transform="translate(223.746 147.033)" fill="#52bbd1"/>
    <rect id="長方形_384" data-name="長方形 384" width="5.038" height="5.038" rx="2.519" transform="translate(230.173 147.033)" fill="#52bbd1"/>
    <rect id="長方形_385" data-name="長方形 385" width="5.038" height="5.038" rx="2.519" transform="translate(236.599 147.033)" fill="#52bbd1"/>
    <rect id="長方形_386" data-name="長方形 386" width="5.038" height="5.038" rx="2.519" transform="translate(204.468 153.33)" fill="#75b777"/>
    <rect id="長方形_387" data-name="長方形 387" width="5.038" height="5.038" rx="2.519" transform="translate(210.894 153.33)" fill="#52bbd1"/>
    <rect id="長方形_388" data-name="長方形 388" width="5.038" height="5.038" rx="2.519" transform="translate(217.32 153.33)" fill="#52bbd1"/>
    <rect id="長方形_389" data-name="長方形 389" width="5.038" height="5.038" rx="2.519" transform="translate(223.746 153.33)" fill="#52bbd1"/>
    <rect id="長方形_390" data-name="長方形 390" width="5.038" height="5.038" rx="2.519" transform="translate(230.173 153.33)" fill="#52bbd1"/>
    <rect id="長方形_391" data-name="長方形 391" width="5.038" height="5.038" rx="2.519" transform="translate(236.599 153.33)" fill="#52bbd1"/>
    <rect id="長方形_392" data-name="長方形 392" width="5.038" height="5.038" rx="2.519" transform="translate(178.763 159.627)" fill="#75b777"/>
    <rect id="長方形_393" data-name="長方形 393" width="5.038" height="5.038" rx="2.519" transform="translate(198.042 159.627)" fill="#75b777"/>
    <rect id="長方形_394" data-name="長方形 394" width="5.038" height="5.038" rx="2.519" transform="translate(204.468 159.627)" fill="#75b777"/>
    <rect id="長方形_395" data-name="長方形 395" width="5.038" height="5.038" rx="2.519" transform="translate(210.894 159.627)" fill="#52bbd1"/>
    <rect id="長方形_396" data-name="長方形 396" width="5.038" height="5.038" rx="2.519" transform="translate(217.32 159.627)" fill="#52bbd1"/>
    <rect id="長方形_397" data-name="長方形 397" width="5.038" height="5.038" rx="2.519" transform="translate(223.746 159.627)" fill="#52bbd1"/>
    <rect id="長方形_398" data-name="長方形 398" width="5.038" height="5.038" rx="2.519" transform="translate(230.173 159.627)" fill="#52bbd1"/>
    <rect id="長方形_399" data-name="長方形 399" width="5.038" height="5.038" rx="2.519" transform="translate(236.599 159.627)" fill="#52bbd1"/>
    <rect id="長方形_400" data-name="長方形 400" width="5.038" height="5.037" rx="2.519" transform="translate(191.615 165.924)" fill="#75b777"/>
    <rect id="長方形_401" data-name="長方形 401" width="5.038" height="5.037" rx="2.519" transform="translate(198.042 165.924)" fill="#75b777"/>
    <rect id="長方形_402" data-name="長方形 402" width="5.038" height="5.037" rx="2.519" transform="translate(204.468 165.924)" fill="#75b777"/>
    <rect id="長方形_403" data-name="長方形 403" width="5.038" height="5.037" rx="2.519" transform="translate(210.894 165.924)" fill="#52bbd1"/>
    <rect id="長方形_404" data-name="長方形 404" width="5.038" height="5.037" rx="2.519" transform="translate(217.32 165.924)" fill="#52bbd1"/>
    <rect id="長方形_405" data-name="長方形 405" width="5.038" height="5.037" rx="2.519" transform="translate(223.746 165.924)" fill="#52bbd1"/>
    <rect id="長方形_406" data-name="長方形 406" width="5.038" height="5.037" rx="2.519" transform="translate(230.173 165.924)" fill="#52bbd1"/>
    <rect id="長方形_407" data-name="長方形 407" width="5.038" height="5.037" rx="2.519" transform="translate(236.599 165.924)" fill="#52bbd1"/>
    <path id="長方形_408" data-name="長方形 408" d="M2.519,0h0A2.519,2.519,0,0,1,5.038,2.519v0A2.519,2.519,0,0,1,2.519,5.038h0A2.519,2.519,0,0,1,0,2.519v0A2.519,2.519,0,0,1,2.519,0Z" transform="translate(159.484 172.221)" fill="#75b777"/>
    <path id="長方形_409" data-name="長方形 409" d="M2.519,0h0A2.519,2.519,0,0,1,5.038,2.519v0A2.519,2.519,0,0,1,2.519,5.038h0A2.519,2.519,0,0,1,0,2.519v0A2.519,2.519,0,0,1,2.519,0Z" transform="translate(178.763 172.221)" fill="#75b777"/>
    <path id="長方形_410" data-name="長方形 410" d="M2.519,0h0A2.519,2.519,0,0,1,5.038,2.519v0A2.519,2.519,0,0,1,2.519,5.038h0A2.519,2.519,0,0,1,0,2.519v0A2.519,2.519,0,0,1,2.519,0Z" transform="translate(185.189 172.221)" fill="#75b777"/>
    <path id="長方形_411" data-name="長方形 411" d="M2.519,0h0A2.519,2.519,0,0,1,5.038,2.519v0A2.519,2.519,0,0,1,2.519,5.038h0A2.519,2.519,0,0,1,0,2.519v0A2.519,2.519,0,0,1,2.519,0Z" transform="translate(191.615 172.221)" fill="#75b777"/>
    <path id="長方形_412" data-name="長方形 412" d="M2.519,0h0A2.519,2.519,0,0,1,5.038,2.519v0A2.519,2.519,0,0,1,2.519,5.038h0A2.519,2.519,0,0,1,0,2.519v0A2.519,2.519,0,0,1,2.519,0Z" transform="translate(198.042 172.221)" fill="#75b777"/>
    <rect id="長方形_413" data-name="長方形 413" width="5.038" height="5.038" rx="2.519" transform="translate(204.468 172.221)" fill="#75b777"/>
    <path id="長方形_414" data-name="長方形 414" d="M2.519,0h0A2.519,2.519,0,0,1,5.038,2.519v0A2.519,2.519,0,0,1,2.519,5.038h0A2.519,2.519,0,0,1,0,2.519v0A2.519,2.519,0,0,1,2.519,0Z" transform="translate(210.894 172.221)" fill="#52bbd1"/>
    <path id="長方形_415" data-name="長方形 415" d="M2.519,0h0A2.519,2.519,0,0,1,5.038,2.519v0A2.519,2.519,0,0,1,2.519,5.038h0A2.519,2.519,0,0,1,0,2.519v0A2.519,2.519,0,0,1,2.519,0Z" transform="translate(217.32 172.221)" fill="#52bbd1"/>
    <path id="長方形_416" data-name="長方形 416" d="M2.519,0h0A2.519,2.519,0,0,1,5.038,2.519v0A2.519,2.519,0,0,1,2.519,5.038h0A2.519,2.519,0,0,1,0,2.519v0A2.519,2.519,0,0,1,2.519,0Z" transform="translate(223.746 172.221)" fill="#52bbd1"/>
    <path id="長方形_417" data-name="長方形 417" d="M2.519,0h0A2.519,2.519,0,0,1,5.038,2.519v0A2.519,2.519,0,0,1,2.519,5.038h0A2.519,2.519,0,0,1,0,2.519v0A2.519,2.519,0,0,1,2.519,0Z" transform="translate(230.173 172.221)" fill="#52bbd1"/>
    <path id="長方形_418" data-name="長方形 418" d="M2.519,0h0A2.519,2.519,0,0,1,5.038,2.519v0A2.519,2.519,0,0,1,2.519,5.038h0A2.519,2.519,0,0,1,0,2.519v0A2.519,2.519,0,0,1,2.519,0Z" transform="translate(236.599 172.221)" fill="#52bbd1"/>
    <path id="長方形_419" data-name="長方形 419" d="M2.519,0h0A2.519,2.519,0,0,1,5.038,2.519v0A2.519,2.519,0,0,1,2.519,5.038h0A2.519,2.519,0,0,1,0,2.519v0A2.519,2.519,0,0,1,2.519,0Z" transform="translate(159.484 178.519)" fill="#75b777"/>
    <path id="長方形_420" data-name="長方形 420" d="M2.519,0h0A2.519,2.519,0,0,1,5.038,2.519v0A2.519,2.519,0,0,1,2.519,5.038h0A2.519,2.519,0,0,1,0,2.519v0A2.519,2.519,0,0,1,2.519,0Z" transform="translate(165.911 178.519)" fill="#75b777"/>
    <rect id="長方形_421" data-name="長方形 421" width="5.038" height="5.038" rx="2.519" transform="translate(172.337 178.519)" fill="#75b777"/>
    <path id="長方形_422" data-name="長方形 422" d="M2.519,0h0A2.519,2.519,0,0,1,5.038,2.519v0A2.519,2.519,0,0,1,2.519,5.038h0A2.519,2.519,0,0,1,0,2.519v0A2.519,2.519,0,0,1,2.519,0Z" transform="translate(178.763 178.519)" fill="#75b777"/>
    <rect id="長方形_423" data-name="長方形 423" width="5.038" height="5.038" rx="2.519" transform="translate(185.189 178.519)" fill="#c0c743"/>
    <path id="長方形_424" data-name="長方形 424" d="M2.519,0h0A2.519,2.519,0,0,1,5.038,2.519v0A2.519,2.519,0,0,1,2.519,5.038h0A2.519,2.519,0,0,1,0,2.519v0A2.519,2.519,0,0,1,2.519,0Z" transform="translate(191.615 178.519)" fill="#c0c743"/>
    <path id="長方形_425" data-name="長方形 425" d="M2.519,0h0A2.519,2.519,0,0,1,5.038,2.519v0A2.519,2.519,0,0,1,2.519,5.038h0A2.519,2.519,0,0,1,0,2.519v0A2.519,2.519,0,0,1,2.519,0Z" transform="translate(198.042 178.519)" fill="#71d5cb"/>
    <rect id="長方形_426" data-name="長方形 426" width="5.038" height="5.038" rx="2.519" transform="translate(204.468 178.519)" fill="#71d5cb"/>
    <path id="長方形_427" data-name="長方形 427" d="M2.519,0h0A2.519,2.519,0,0,1,5.038,2.519v0A2.519,2.519,0,0,1,2.519,5.038h0A2.519,2.519,0,0,1,0,2.519v0A2.519,2.519,0,0,1,2.519,0Z" transform="translate(210.894 178.519)" fill="#71d5cb"/>
    <path id="長方形_428" data-name="長方形 428" d="M2.519,0h0A2.519,2.519,0,0,1,5.038,2.519v0A2.519,2.519,0,0,1,2.519,5.038h0A2.519,2.519,0,0,1,0,2.519v0A2.519,2.519,0,0,1,2.519,0Z" transform="translate(217.32 178.519)" fill="#71d5cb"/>
    <path id="長方形_429" data-name="長方形 429" d="M2.519,0h0A2.519,2.519,0,0,1,5.038,2.519v0A2.519,2.519,0,0,1,2.519,5.038h0A2.519,2.519,0,0,1,0,2.519v0A2.519,2.519,0,0,1,2.519,0Z" transform="translate(223.746 178.519)" fill="#71d5cb"/>
    <path id="長方形_430" data-name="長方形 430" d="M2.519,0h0A2.519,2.519,0,0,1,5.038,2.519v0A2.519,2.519,0,0,1,2.519,5.038h0A2.519,2.519,0,0,1,0,2.519v0A2.519,2.519,0,0,1,2.519,0Z" transform="translate(230.173 178.519)" fill="#71d5cb"/>
    <path id="長方形_431" data-name="長方形 431" d="M2.519,0h0A2.519,2.519,0,0,1,5.038,2.519v0A2.519,2.519,0,0,1,2.519,5.038h0A2.519,2.519,0,0,1,0,2.519v0A2.519,2.519,0,0,1,2.519,0Z" transform="translate(236.599 178.519)" fill="#71d5cb"/>
    <rect id="長方形_432" data-name="長方形 432" width="5.038" height="5.037" rx="2.519" transform="translate(153.058 184.816)" fill="#75b777"/>
    <rect id="長方形_433" data-name="長方形 433" width="5.038" height="5.037" rx="2.519" transform="translate(159.484 184.816)" fill="#75b777"/>
    <rect id="長方形_434" data-name="長方形 434" width="5.038" height="5.037" rx="2.519" transform="translate(165.911 184.816)" fill="#75b777"/>
    <rect id="長方形_435" data-name="長方形 435" width="5.038" height="5.037" rx="2.519" transform="translate(172.337 184.816)" fill="#75b777"/>
    <rect id="長方形_436" data-name="長方形 436" width="5.038" height="5.037" rx="2.519" transform="translate(178.763 184.816)" fill="#75b777"/>
    <rect id="長方形_437" data-name="長方形 437" width="5.038" height="5.037" rx="2.519" transform="translate(185.189 184.816)" fill="#c0c743"/>
    <rect id="長方形_438" data-name="長方形 438" width="5.038" height="5.037" rx="2.519" transform="translate(191.615 184.816)" fill="#c0c743"/>
    <rect id="長方形_439" data-name="長方形 439" width="5.038" height="5.037" rx="2.519" transform="translate(198.042 184.816)" fill="#71d5cb"/>
    <rect id="長方形_440" data-name="長方形 440" width="5.038" height="5.037" rx="2.519" transform="translate(204.468 184.816)" fill="#71d5cb"/>
    <rect id="長方形_441" data-name="長方形 441" width="5.038" height="5.037" rx="2.519" transform="translate(210.894 184.816)" fill="#71d5cb"/>
    <rect id="長方形_442" data-name="長方形 442" width="5.038" height="5.037" rx="2.519" transform="translate(217.32 184.816)" fill="#71d5cb"/>
    <rect id="長方形_443" data-name="長方形 443" width="5.038" height="5.037" rx="2.519" transform="translate(223.746 184.816)" fill="#71d5cb"/>
    <rect id="長方形_444" data-name="長方形 444" width="5.038" height="5.037" rx="2.519" transform="translate(230.173 184.816)" fill="#71d5cb"/>
    <rect id="長方形_445" data-name="長方形 445" width="5.038" height="5.037" rx="2.519" transform="translate(236.599 184.816)" fill="#71d5cb"/>
    <path id="長方形_446" data-name="長方形 446" d="M2.519,0h0A2.519,2.519,0,0,1,5.038,2.519v0A2.519,2.519,0,0,1,2.519,5.038h0A2.519,2.519,0,0,1,0,2.519v0A2.519,2.519,0,0,1,2.519,0Z" transform="translate(153.058 191.112)" fill="#75b777"/>
    <rect id="長方形_447" data-name="長方形 447" width="5.038" height="5.038" rx="2.519" transform="translate(159.484 191.112)" fill="#75b777"/>
    <path id="長方形_448" data-name="長方形 448" d="M2.519,0h0A2.519,2.519,0,0,1,5.038,2.519v0A2.519,2.519,0,0,1,2.519,5.038h0A2.519,2.519,0,0,1,0,2.519v0A2.519,2.519,0,0,1,2.519,0Z" transform="translate(165.911 191.112)" fill="#c0c743"/>
    <path id="長方形_449" data-name="長方形 449" d="M2.519,0h0A2.519,2.519,0,0,1,5.038,2.519v0A2.519,2.519,0,0,1,2.519,5.038h0A2.519,2.519,0,0,1,0,2.519v0A2.519,2.519,0,0,1,2.519,0Z" transform="translate(172.337 191.112)" fill="#c0c743"/>
    <path id="長方形_450" data-name="長方形 450" d="M2.519,0h0A2.519,2.519,0,0,1,5.038,2.519v0A2.519,2.519,0,0,1,2.519,5.038h0A2.519,2.519,0,0,1,0,2.519v0A2.519,2.519,0,0,1,2.519,0Z" transform="translate(178.763 191.112)" fill="#c0c743"/>
    <path id="長方形_451" data-name="長方形 451" d="M2.519,0h0A2.519,2.519,0,0,1,5.038,2.519v0A2.519,2.519,0,0,1,2.519,5.038h0A2.519,2.519,0,0,1,0,2.519v0A2.519,2.519,0,0,1,2.519,0Z" transform="translate(185.189 191.112)" fill="#c0c743"/>
    <path id="長方形_452" data-name="長方形 452" d="M2.519,0h0A2.519,2.519,0,0,1,5.038,2.519v0A2.519,2.519,0,0,1,2.519,5.038h0A2.519,2.519,0,0,1,0,2.519v0A2.519,2.519,0,0,1,2.519,0Z" transform="translate(191.615 191.112)" fill="#c0c743"/>
    <path id="長方形_453" data-name="長方形 453" d="M2.519,0h0A2.519,2.519,0,0,1,5.038,2.519v0A2.519,2.519,0,0,1,2.519,5.038h0A2.519,2.519,0,0,1,0,2.519v0A2.519,2.519,0,0,1,2.519,0Z" transform="translate(198.042 191.112)" fill="#71d5cb"/>
    <path id="長方形_454" data-name="長方形 454" d="M2.519,0h0A2.519,2.519,0,0,1,5.038,2.519v0A2.519,2.519,0,0,1,2.519,5.038h0A2.519,2.519,0,0,1,0,2.519v0A2.519,2.519,0,0,1,2.519,0Z" transform="translate(204.468 191.112)" fill="#71d5cb"/>
    <path id="長方形_455" data-name="長方形 455" d="M2.519,0h0A2.519,2.519,0,0,1,5.038,2.519v0A2.519,2.519,0,0,1,2.519,5.038h0A2.519,2.519,0,0,1,0,2.519v0A2.519,2.519,0,0,1,2.519,0Z" transform="translate(210.894 191.112)" fill="#71d5cb"/>
    <path id="長方形_456" data-name="長方形 456" d="M2.519,0h0A2.519,2.519,0,0,1,5.038,2.519v0A2.519,2.519,0,0,1,2.519,5.038h0A2.519,2.519,0,0,1,0,2.519v0A2.519,2.519,0,0,1,2.519,0Z" transform="translate(217.32 191.112)" fill="#71d5cb"/>
    <path id="長方形_457" data-name="長方形 457" d="M2.519,0h0A2.519,2.519,0,0,1,5.038,2.519v0A2.519,2.519,0,0,1,2.519,5.038h0A2.519,2.519,0,0,1,0,2.519v0A2.519,2.519,0,0,1,2.519,0Z" transform="translate(223.746 191.112)" fill="#71d5cb"/>
    <path id="長方形_458" data-name="長方形 458" d="M2.519,0h0A2.519,2.519,0,0,1,5.038,2.519v0A2.519,2.519,0,0,1,2.519,5.038h0A2.519,2.519,0,0,1,0,2.519v0A2.519,2.519,0,0,1,2.519,0Z" transform="translate(230.173 191.112)" fill="#71d5cb"/>
    <path id="長方形_459" data-name="長方形 459" d="M2.519,0h0A2.519,2.519,0,0,1,5.038,2.519v0A2.519,2.519,0,0,1,2.519,5.038h0A2.519,2.519,0,0,1,0,2.519v0A2.519,2.519,0,0,1,2.519,0Z" transform="translate(236.599 191.112)" fill="#71d5cb"/>
    <rect id="長方形_460" data-name="長方形 460" width="5.038" height="5.038" rx="2.519" transform="translate(82.37 197.409)" fill="#f58c3f"/>
    <rect id="長方形_461" data-name="長方形 461" width="5.038" height="5.038" rx="2.519" transform="translate(88.796 197.409)" fill="#f58c3f"/>
    <path id="長方形_462" data-name="長方形 462" d="M2.519,0h0A2.519,2.519,0,0,1,5.038,2.519v0A2.519,2.519,0,0,1,2.519,5.038h0A2.519,2.519,0,0,1,0,2.519v0A2.519,2.519,0,0,1,2.519,0Z" transform="translate(95.222 197.409)" fill="#f58c3f"/>
    <path id="長方形_463" data-name="長方形 463" d="M2.519,0h0A2.519,2.519,0,0,1,5.038,2.519v0A2.519,2.519,0,0,1,2.519,5.038h0A2.519,2.519,0,0,1,0,2.519v0A2.519,2.519,0,0,1,2.519,0Z" transform="translate(101.649 197.409)" fill="#f58c3f"/>
    <path id="長方形_464" data-name="長方形 464" d="M2.519,0h0A2.519,2.519,0,0,1,5.038,2.519v0A2.519,2.519,0,0,1,2.519,5.038h0A2.519,2.519,0,0,1,0,2.519v0A2.519,2.519,0,0,1,2.519,0Z" transform="translate(108.075 197.409)" fill="#f58c3f"/>
    <path id="長方形_465" data-name="長方形 465" d="M2.519,0h0A2.519,2.519,0,0,1,5.038,2.519v0A2.519,2.519,0,0,1,2.519,5.038h0A2.519,2.519,0,0,1,0,2.519v0A2.519,2.519,0,0,1,2.519,0Z" transform="translate(114.501 197.409)" fill="#efb838"/>
    <path id="長方形_466" data-name="長方形 466" d="M2.518,0h0A2.518,2.518,0,0,1,5.038,2.518v0A2.519,2.519,0,0,1,2.519,5.038h0A2.519,2.519,0,0,1,0,2.519v0A2.518,2.518,0,0,1,2.518,0Z" transform="translate(120.927 197.409)" fill="#efb838"/>
    <path id="長方形_467" data-name="長方形 467" d="M2.519,0h0A2.519,2.519,0,0,1,5.038,2.519v0A2.519,2.519,0,0,1,2.519,5.038h0A2.519,2.519,0,0,1,0,2.519v0A2.519,2.519,0,0,1,2.519,0Z" transform="translate(127.353 197.409)" fill="#efb838"/>
    <path id="長方形_468" data-name="長方形 468" d="M2.518,0h0A2.518,2.518,0,0,1,5.038,2.518v0A2.519,2.519,0,0,1,2.519,5.038h0A2.519,2.519,0,0,1,0,2.519v0A2.518,2.518,0,0,1,2.518,0Z" transform="translate(133.78 197.409)" fill="#efb838"/>
    <path id="長方形_469" data-name="長方形 469" d="M2.519,0h0A2.519,2.519,0,0,1,5.038,2.519v0A2.519,2.519,0,0,1,2.519,5.038h0A2.519,2.519,0,0,1,0,2.519v0A2.519,2.519,0,0,1,2.519,0Z" transform="translate(140.206 197.409)" fill="#75b777"/>
    <path id="長方形_470" data-name="長方形 470" d="M2.519,0h0A2.519,2.519,0,0,1,5.038,2.519v0A2.519,2.519,0,0,1,2.519,5.038h0A2.519,2.519,0,0,1,0,2.519v0A2.519,2.519,0,0,1,2.519,0Z" transform="translate(146.632 197.409)" fill="#75b777"/>
    <rect id="長方形_471" data-name="長方形 471" width="5.038" height="5.038" rx="2.519" transform="translate(153.058 197.409)" fill="#75b777"/>
    <path id="長方形_472" data-name="長方形 472" d="M2.519,0h0A2.519,2.519,0,0,1,5.038,2.519v0A2.519,2.519,0,0,1,2.519,5.038h0A2.519,2.519,0,0,1,0,2.519v0A2.519,2.519,0,0,1,2.519,0Z" transform="translate(159.484 197.409)" fill="#75b777"/>
    <path id="長方形_473" data-name="長方形 473" d="M2.519,0h0A2.519,2.519,0,0,1,5.038,2.519v0A2.519,2.519,0,0,1,2.519,5.038h0A2.519,2.519,0,0,1,0,2.519v0A2.519,2.519,0,0,1,2.519,0Z" transform="translate(165.911 197.409)" fill="#c0c743"/>
    <path id="長方形_474" data-name="長方形 474" d="M2.519,0h0A2.519,2.519,0,0,1,5.038,2.519v0A2.519,2.519,0,0,1,2.519,5.038h0A2.519,2.519,0,0,1,0,2.519v0A2.519,2.519,0,0,1,2.519,0Z" transform="translate(172.337 197.409)" fill="#c0c743"/>
    <path id="長方形_475" data-name="長方形 475" d="M2.519,0h0A2.519,2.519,0,0,1,5.038,2.519v0A2.519,2.519,0,0,1,2.519,5.038h0A2.519,2.519,0,0,1,0,2.519v0A2.519,2.519,0,0,1,2.519,0Z" transform="translate(178.763 197.409)" fill="#c0c743"/>
    <path id="長方形_476" data-name="長方形 476" d="M2.519,0h0A2.519,2.519,0,0,1,5.038,2.519v0A2.519,2.519,0,0,1,2.519,5.038h0A2.519,2.519,0,0,1,0,2.519v0A2.519,2.519,0,0,1,2.519,0Z" transform="translate(185.189 197.409)" fill="#c0c743"/>
    <path id="長方形_477" data-name="長方形 477" d="M2.519,0h0A2.519,2.519,0,0,1,5.038,2.519v0A2.519,2.519,0,0,1,2.519,5.038h0A2.519,2.519,0,0,1,0,2.519v0A2.519,2.519,0,0,1,2.519,0Z" transform="translate(191.615 197.409)" fill="#c0c743"/>
    <path id="長方形_478" data-name="長方形 478" d="M2.519,0h0A2.519,2.519,0,0,1,5.038,2.519v0A2.519,2.519,0,0,1,2.519,5.038h0A2.519,2.519,0,0,1,0,2.519v0A2.519,2.519,0,0,1,2.519,0Z" transform="translate(198.042 197.409)" fill="#71d5cb"/>
    <rect id="長方形_479" data-name="長方形 479" width="5.038" height="5.038" rx="2.519" transform="translate(204.468 197.409)" fill="#71d5cb"/>
    <path id="長方形_480" data-name="長方形 480" d="M2.519,0h0A2.519,2.519,0,0,1,5.038,2.519v0A2.519,2.519,0,0,1,2.519,5.038h0A2.519,2.519,0,0,1,0,2.519v0A2.519,2.519,0,0,1,2.519,0Z" transform="translate(210.894 197.409)" fill="#71d5cb"/>
    <path id="長方形_481" data-name="長方形 481" d="M2.519,0h0A2.519,2.519,0,0,1,5.038,2.519v0A2.519,2.519,0,0,1,2.519,5.038h0A2.519,2.519,0,0,1,0,2.519v0A2.519,2.519,0,0,1,2.519,0Z" transform="translate(217.32 197.409)" fill="#71d5cb"/>
    <path id="長方形_482" data-name="長方形 482" d="M2.519,0h0A2.519,2.519,0,0,1,5.038,2.519v0A2.519,2.519,0,0,1,2.519,5.038h0A2.519,2.519,0,0,1,0,2.519v0A2.519,2.519,0,0,1,2.519,0Z" transform="translate(223.746 197.409)" fill="#71d5cb"/>
    <path id="長方形_483" data-name="長方形 483" d="M2.519,0h0A2.519,2.519,0,0,1,5.038,2.519v0A2.519,2.519,0,0,1,2.519,5.038h0A2.519,2.519,0,0,1,0,2.519v0A2.519,2.519,0,0,1,2.519,0Z" transform="translate(230.173 197.409)" fill="#71d5cb"/>
    <path id="長方形_484" data-name="長方形 484" d="M2.519,0h0A2.519,2.519,0,0,1,5.038,2.519v0A2.519,2.519,0,0,1,2.519,5.038h0A2.519,2.519,0,0,1,0,2.519v0A2.519,2.519,0,0,1,2.519,0Z" transform="translate(236.599 197.409)" fill="#71d5cb"/>
    <rect id="長方形_485" data-name="長方形 485" width="5.038" height="5.038" rx="2.519" transform="translate(75.944 203.706)" fill="#f58c3f"/>
    <rect id="長方形_486" data-name="長方形 486" width="5.038" height="5.038" rx="2.519" transform="translate(82.37 203.706)" fill="#f58c3f"/>
    <rect id="長方形_487" data-name="長方形 487" width="5.038" height="5.038" rx="2.519" transform="translate(88.796 203.706)" fill="#f58c3f"/>
    <rect id="長方形_488" data-name="長方形 488" width="5.038" height="5.038" rx="2.519" transform="translate(95.222 203.706)" fill="#f58c3f"/>
    <path id="長方形_489" data-name="長方形 489" d="M2.519,0h0A2.519,2.519,0,0,1,5.038,2.519v0A2.519,2.519,0,0,1,2.519,5.038h0A2.519,2.519,0,0,1,0,2.519v0A2.519,2.519,0,0,1,2.519,0Z" transform="translate(101.649 203.706)" fill="#f58c3f"/>
    <path id="長方形_490" data-name="長方形 490" d="M2.519,0h0A2.519,2.519,0,0,1,5.038,2.519v0A2.519,2.519,0,0,1,2.519,5.038h0A2.519,2.519,0,0,1,0,2.519v0A2.519,2.519,0,0,1,2.519,0Z" transform="translate(108.075 203.706)" fill="#f58c3f"/>
    <path id="長方形_491" data-name="長方形 491" d="M2.519,0h0A2.519,2.519,0,0,1,5.038,2.519v0A2.519,2.519,0,0,1,2.519,5.038h0A2.519,2.519,0,0,1,0,2.519v0A2.519,2.519,0,0,1,2.519,0Z" transform="translate(114.501 203.706)" fill="#efb838"/>
    <path id="長方形_492" data-name="長方形 492" d="M2.519,0h0A2.519,2.519,0,0,1,5.038,2.519v0A2.519,2.519,0,0,1,2.519,5.038h0A2.519,2.519,0,0,1,0,2.519v0A2.519,2.519,0,0,1,2.519,0Z" transform="translate(120.927 203.706)" fill="#efb838"/>
    <path id="長方形_493" data-name="長方形 493" d="M2.519,0h0A2.519,2.519,0,0,1,5.038,2.519v0A2.519,2.519,0,0,1,2.519,5.038h0A2.519,2.519,0,0,1,0,2.519v0A2.519,2.519,0,0,1,2.519,0Z" transform="translate(127.353 203.706)" fill="#efb838"/>
    <path id="長方形_494" data-name="長方形 494" d="M2.519,0h0A2.519,2.519,0,0,1,5.038,2.519v0A2.519,2.519,0,0,1,2.519,5.038h0A2.519,2.519,0,0,1,0,2.519v0A2.519,2.519,0,0,1,2.519,0Z" transform="translate(133.78 203.706)" fill="#efb838"/>
    <path id="長方形_495" data-name="長方形 495" d="M2.519,0h0A2.519,2.519,0,0,1,5.038,2.519v0A2.519,2.519,0,0,1,2.519,5.038h0A2.519,2.519,0,0,1,0,2.519v0A2.519,2.519,0,0,1,2.519,0Z" transform="translate(140.206 203.706)" fill="#efb838"/>
    <path id="長方形_496" data-name="長方形 496" d="M2.519,0h0A2.519,2.519,0,0,1,5.038,2.519v0A2.519,2.519,0,0,1,2.519,5.038h0A2.519,2.519,0,0,1,0,2.519v0A2.519,2.519,0,0,1,2.519,0Z" transform="translate(146.632 203.706)" fill="#efb838"/>
    <rect id="長方形_497" data-name="長方形 497" width="5.038" height="5.038" rx="2.519" transform="translate(153.058 203.706)" fill="#efb838"/>
    <path id="長方形_498" data-name="長方形 498" d="M2.519,0h0A2.519,2.519,0,0,1,5.038,2.519v0A2.519,2.519,0,0,1,2.519,5.038h0A2.519,2.519,0,0,1,0,2.519v0A2.519,2.519,0,0,1,2.519,0Z" transform="translate(159.484 203.706)" fill="#efb838"/>
    <path id="長方形_499" data-name="長方形 499" d="M2.519,0h0A2.519,2.519,0,0,1,5.038,2.519v0A2.519,2.519,0,0,1,2.519,5.038h0A2.519,2.519,0,0,1,0,2.519v0A2.519,2.519,0,0,1,2.519,0Z" transform="translate(165.911 203.706)" fill="#c0c743"/>
    <path id="長方形_500" data-name="長方形 500" d="M2.519,0h0A2.519,2.519,0,0,1,5.038,2.519v0A2.519,2.519,0,0,1,2.519,5.038h0A2.519,2.519,0,0,1,0,2.519v0A2.519,2.519,0,0,1,2.519,0Z" transform="translate(172.337 203.706)" fill="#c0c743"/>
    <path id="長方形_501" data-name="長方形 501" d="M2.519,0h0A2.519,2.519,0,0,1,5.038,2.519v0A2.519,2.519,0,0,1,2.519,5.038h0A2.519,2.519,0,0,1,0,2.519v0A2.519,2.519,0,0,1,2.519,0Z" transform="translate(178.763 203.706)" fill="#c0c743"/>
    <path id="長方形_502" data-name="長方形 502" d="M2.519,0h0A2.519,2.519,0,0,1,5.038,2.519v0A2.519,2.519,0,0,1,2.519,5.038h0A2.519,2.519,0,0,1,0,2.519v0A2.519,2.519,0,0,1,2.519,0Z" transform="translate(185.189 203.706)" fill="#c0c743"/>
    <path id="長方形_503" data-name="長方形 503" d="M2.519,0h0A2.519,2.519,0,0,1,5.038,2.519v0A2.519,2.519,0,0,1,2.519,5.038h0A2.519,2.519,0,0,1,0,2.519v0A2.519,2.519,0,0,1,2.519,0Z" transform="translate(191.615 203.706)" fill="#c0c743"/>
    <path id="長方形_504" data-name="長方形 504" d="M2.519,0h0A2.519,2.519,0,0,1,5.038,2.519v0A2.519,2.519,0,0,1,2.519,5.038h0A2.519,2.519,0,0,1,0,2.519v0A2.519,2.519,0,0,1,2.519,0Z" transform="translate(198.042 203.706)" fill="#c0c743"/>
    <path id="長方形_505" data-name="長方形 505" d="M2.519,0h0A2.519,2.519,0,0,1,5.038,2.519v0A2.519,2.519,0,0,1,2.519,5.038h0A2.519,2.519,0,0,1,0,2.519v0A2.519,2.519,0,0,1,2.519,0Z" transform="translate(204.468 203.706)" fill="#c0c743"/>
    <path id="長方形_506" data-name="長方形 506" d="M2.519,0h0A2.519,2.519,0,0,1,5.038,2.519v0A2.519,2.519,0,0,1,2.519,5.038h0A2.519,2.519,0,0,1,0,2.519v0A2.519,2.519,0,0,1,2.519,0Z" transform="translate(210.894 203.706)" fill="#71d5cb"/>
    <path id="長方形_507" data-name="長方形 507" d="M2.519,0h0A2.519,2.519,0,0,1,5.038,2.519v0A2.519,2.519,0,0,1,2.519,5.038h0A2.519,2.519,0,0,1,0,2.519v0A2.519,2.519,0,0,1,2.519,0Z" transform="translate(217.32 203.706)" fill="#71d5cb"/>
    <path id="長方形_508" data-name="長方形 508" d="M2.519,0h0A2.519,2.519,0,0,1,5.038,2.519v0A2.519,2.519,0,0,1,2.519,5.038h0A2.519,2.519,0,0,1,0,2.519v0A2.519,2.519,0,0,1,2.519,0Z" transform="translate(223.746 203.706)" fill="#71d5cb"/>
    <path id="長方形_509" data-name="長方形 509" d="M2.519,0h0A2.519,2.519,0,0,1,5.038,2.519v0A2.519,2.519,0,0,1,2.519,5.038h0A2.519,2.519,0,0,1,0,2.519v0A2.519,2.519,0,0,1,2.519,0Z" transform="translate(230.173 203.706)" fill="#71d5cb"/>
    <path id="長方形_510" data-name="長方形 510" d="M2.519,0h0A2.519,2.519,0,0,1,5.038,2.519v0A2.519,2.519,0,0,1,2.519,5.038h0A2.519,2.519,0,0,1,0,2.519v0A2.519,2.519,0,0,1,2.519,0Z" transform="translate(236.599 203.706)" fill="#71d5cb"/>
    <path id="長方形_511" data-name="長方形 511" d="M2.519,0h0A2.519,2.519,0,0,1,5.038,2.519v0A2.519,2.519,0,0,1,2.519,5.038h0A2.519,2.519,0,0,1,0,2.519v0A2.519,2.519,0,0,1,2.519,0Z" transform="translate(75.944 210.003)" fill="#f58c3f"/>
    <path id="長方形_512" data-name="長方形 512" d="M2.519,0h0A2.519,2.519,0,0,1,5.038,2.519v0A2.519,2.519,0,0,1,2.519,5.038h0A2.519,2.519,0,0,1,0,2.519v0A2.519,2.519,0,0,1,2.519,0Z" transform="translate(82.37 210.003)" fill="#f58c3f"/>
    <path id="長方形_513" data-name="長方形 513" d="M2.519,0h0A2.519,2.519,0,0,1,5.038,2.519v0A2.519,2.519,0,0,1,2.519,5.038h0A2.519,2.519,0,0,1,0,2.519v0A2.519,2.519,0,0,1,2.519,0Z" transform="translate(88.796 210.003)" fill="#f58c3f"/>
    <path id="長方形_514" data-name="長方形 514" d="M2.519,0h0A2.519,2.519,0,0,1,5.038,2.519v0A2.519,2.519,0,0,1,2.519,5.038h0A2.519,2.519,0,0,1,0,2.519v0A2.519,2.519,0,0,1,2.519,0Z" transform="translate(95.222 210.003)" fill="#f58c3f"/>
    <path id="長方形_515" data-name="長方形 515" d="M2.519,0h0A2.519,2.519,0,0,1,5.038,2.519v0A2.519,2.519,0,0,1,2.519,5.038h0A2.519,2.519,0,0,1,0,2.519v0A2.519,2.519,0,0,1,2.519,0Z" transform="translate(101.649 210.003)" fill="#f58c3f"/>
    <path id="長方形_516" data-name="長方形 516" d="M2.519,0h0A2.519,2.519,0,0,1,5.038,2.519v0A2.519,2.519,0,0,1,2.519,5.038h0A2.519,2.519,0,0,1,0,2.519v0A2.519,2.519,0,0,1,2.519,0Z" transform="translate(108.075 210.003)" fill="#f58c3f"/>
    <path id="長方形_517" data-name="長方形 517" d="M2.519,0h0A2.519,2.519,0,0,1,5.038,2.519v0A2.519,2.519,0,0,1,2.519,5.038h0A2.519,2.519,0,0,1,0,2.519v0A2.519,2.519,0,0,1,2.519,0Z" transform="translate(114.501 210.003)" fill="#efb838"/>
    <path id="長方形_518" data-name="長方形 518" d="M2.519,0h0A2.519,2.519,0,0,1,5.038,2.519v0A2.519,2.519,0,0,1,2.519,5.038h0A2.519,2.519,0,0,1,0,2.519v0A2.519,2.519,0,0,1,2.519,0Z" transform="translate(120.927 210.003)" fill="#efb838"/>
    <path id="長方形_519" data-name="長方形 519" d="M2.519,0h0A2.519,2.519,0,0,1,5.038,2.519v0A2.519,2.519,0,0,1,2.519,5.038h0A2.519,2.519,0,0,1,0,2.519v0A2.519,2.519,0,0,1,2.519,0Z" transform="translate(127.353 210.003)" fill="#efb838"/>
    <path id="長方形_520" data-name="長方形 520" d="M2.519,0h0A2.519,2.519,0,0,1,5.038,2.519v0A2.519,2.519,0,0,1,2.519,5.038h0A2.519,2.519,0,0,1,0,2.519v0A2.519,2.519,0,0,1,2.519,0Z" transform="translate(133.78 210.003)" fill="#efb838"/>
    <path id="長方形_521" data-name="長方形 521" d="M2.519,0h0A2.519,2.519,0,0,1,5.038,2.519v0A2.519,2.519,0,0,1,2.519,5.038h0A2.519,2.519,0,0,1,0,2.519v0A2.519,2.519,0,0,1,2.519,0Z" transform="translate(140.206 210.003)" fill="#efb838"/>
    <path id="長方形_522" data-name="長方形 522" d="M2.519,0h0A2.519,2.519,0,0,1,5.038,2.519v0A2.519,2.519,0,0,1,2.519,5.038h0A2.518,2.518,0,0,1,0,2.519v0A2.519,2.519,0,0,1,2.519,0Z" transform="translate(146.632 210.003)" fill="#efb838"/>
    <path id="長方形_523" data-name="長方形 523" d="M2.519,0h0A2.519,2.519,0,0,1,5.038,2.519v0A2.519,2.519,0,0,1,2.519,5.038h0A2.519,2.519,0,0,1,0,2.519v0A2.519,2.519,0,0,1,2.519,0Z" transform="translate(153.058 210.003)" fill="#efb838"/>
    <rect id="長方形_524" data-name="長方形 524" width="5.038" height="5.038" rx="2.519" transform="translate(159.484 210.003)" fill="#efb838"/>
    <path id="長方形_525" data-name="長方形 525" d="M2.519,0h0A2.519,2.519,0,0,1,5.038,2.519v0A2.519,2.519,0,0,1,2.519,5.038h0A2.519,2.519,0,0,1,0,2.519v0A2.519,2.519,0,0,1,2.519,0Z" transform="translate(165.911 210.003)" fill="#c0c743"/>
    <path id="長方形_526" data-name="長方形 526" d="M2.519,0h0A2.519,2.519,0,0,1,5.038,2.519v0A2.519,2.519,0,0,1,2.519,5.038h0A2.519,2.519,0,0,1,0,2.519v0A2.519,2.519,0,0,1,2.519,0Z" transform="translate(172.337 210.003)" fill="#c0c743"/>
    <path id="長方形_527" data-name="長方形 527" d="M2.519,0h0A2.518,2.518,0,0,1,5.038,2.518v0A2.519,2.519,0,0,1,2.519,5.038h0A2.519,2.519,0,0,1,0,2.519v0A2.519,2.519,0,0,1,2.519,0Z" transform="translate(178.763 210.003)" fill="#c0c743"/>
    <path id="長方形_528" data-name="長方形 528" d="M2.519,0h0A2.519,2.519,0,0,1,5.038,2.519v0A2.519,2.519,0,0,1,2.519,5.038h0A2.519,2.519,0,0,1,0,2.519v0A2.519,2.519,0,0,1,2.519,0Z" transform="translate(185.189 210.003)" fill="#c0c743"/>
    <path id="長方形_529" data-name="長方形 529" d="M2.519,0h0A2.519,2.519,0,0,1,5.038,2.519v0A2.519,2.519,0,0,1,2.519,5.038h0A2.519,2.519,0,0,1,0,2.519v0A2.519,2.519,0,0,1,2.519,0Z" transform="translate(191.615 210.003)" fill="#c0c743"/>
    <path id="長方形_530" data-name="長方形 530" d="M2.519,0h0A2.519,2.519,0,0,1,5.038,2.519v0A2.519,2.519,0,0,1,2.519,5.038h0A2.519,2.519,0,0,1,0,2.519v0A2.519,2.519,0,0,1,2.519,0Z" transform="translate(198.042 210.003)" fill="#c0c743"/>
    <path id="長方形_531" data-name="長方形 531" d="M2.519,0h0A2.519,2.519,0,0,1,5.038,2.519v0A2.519,2.519,0,0,1,2.519,5.038h0A2.519,2.519,0,0,1,0,2.519v0A2.519,2.519,0,0,1,2.519,0Z" transform="translate(204.468 210.003)" fill="#c0c743"/>
    <path id="長方形_532" data-name="長方形 532" d="M2.519,0h0A2.519,2.519,0,0,1,5.038,2.519v0A2.519,2.519,0,0,1,2.519,5.038h0A2.519,2.519,0,0,1,0,2.519v0A2.519,2.519,0,0,1,2.519,0Z" transform="translate(210.894 210.003)" fill="#71d5cb"/>
    <path id="長方形_533" data-name="長方形 533" d="M2.519,0h0A2.519,2.519,0,0,1,5.038,2.519v0A2.519,2.519,0,0,1,2.519,5.038h0A2.519,2.519,0,0,1,0,2.519v0A2.519,2.519,0,0,1,2.519,0Z" transform="translate(217.32 210.003)" fill="#71d5cb"/>
    <path id="長方形_534" data-name="長方形 534" d="M2.519,0h0A2.519,2.519,0,0,1,5.038,2.519v0A2.519,2.519,0,0,1,2.519,5.038h0A2.519,2.519,0,0,1,0,2.519v0A2.519,2.519,0,0,1,2.519,0Z" transform="translate(230.173 210.003)" fill="#71d5cb"/>
    <path id="長方形_535" data-name="長方形 535" d="M2.519,0h0A2.519,2.519,0,0,1,5.038,2.519v0A2.519,2.519,0,0,1,2.519,5.038h0A2.519,2.519,0,0,1,0,2.519v0A2.519,2.519,0,0,1,2.519,0Z" transform="translate(236.599 210.003)" fill="#71d5cb"/>
    <rect id="長方形_536" data-name="長方形 536" width="5.038" height="5.038" rx="2.519" transform="translate(30.96 216.301)" fill="#e77a72"/>
    <path id="長方形_537" data-name="長方形 537" d="M2.519,0h0A2.519,2.519,0,0,1,5.038,2.519v0A2.519,2.519,0,0,1,2.519,5.038h0A2.519,2.519,0,0,1,0,2.519v0A2.519,2.519,0,0,1,2.519,0Z" transform="translate(37.387 216.301)" fill="#e77a72"/>
    <rect id="長方形_538" data-name="長方形 538" width="5.038" height="5.038" rx="2.519" transform="translate(43.813 216.301)" fill="#e77a72"/>
    <path id="長方形_539" data-name="長方形 539" d="M2.519,0h0A2.519,2.519,0,0,1,5.038,2.519v0A2.519,2.519,0,0,1,2.519,5.038h0A2.519,2.519,0,0,1,0,2.519v0A2.519,2.519,0,0,1,2.519,0Z" transform="translate(50.239 216.301)" fill="#e77a72"/>
    <rect id="長方形_540" data-name="長方形 540" width="5.038" height="5.038" rx="2.519" transform="translate(56.665 216.301)" fill="#e77a72"/>
    <path id="長方形_541" data-name="長方形 541" d="M2.519,0h0A2.519,2.519,0,0,1,5.038,2.519v0A2.519,2.519,0,0,1,2.519,5.038h0A2.519,2.519,0,0,1,0,2.519v0A2.519,2.519,0,0,1,2.519,0Z" transform="translate(63.091 216.301)" fill="#e77a72"/>
    <path id="長方形_542" data-name="長方形 542" d="M2.519,0h0A2.519,2.519,0,0,1,5.038,2.519v0A2.519,2.519,0,0,1,2.519,5.038h0A2.519,2.519,0,0,1,0,2.519v0A2.519,2.519,0,0,1,2.519,0Z" transform="translate(69.518 216.301)" fill="#f58c3f"/>
    <path id="長方形_543" data-name="長方形 543" d="M2.519,0h0A2.519,2.519,0,0,1,5.038,2.519v0A2.519,2.519,0,0,1,2.519,5.038h0A2.519,2.519,0,0,1,0,2.519v0A2.519,2.519,0,0,1,2.519,0Z" transform="translate(75.944 216.301)" fill="#f58c3f"/>
    <path id="長方形_544" data-name="長方形 544" d="M2.519,0h0A2.519,2.519,0,0,1,5.038,2.519v0A2.519,2.519,0,0,1,2.519,5.038h0A2.519,2.519,0,0,1,0,2.519v0A2.519,2.519,0,0,1,2.519,0Z" transform="translate(82.37 216.301)" fill="#f58c3f"/>
    <path id="長方形_545" data-name="長方形 545" d="M2.519,0h0A2.519,2.519,0,0,1,5.038,2.519v0A2.519,2.519,0,0,1,2.519,5.038h0A2.519,2.519,0,0,1,0,2.519v0A2.519,2.519,0,0,1,2.519,0Z" transform="translate(88.796 216.301)" fill="#f58c3f"/>
    <path id="長方形_546" data-name="長方形 546" d="M2.519,0h0A2.519,2.519,0,0,1,5.038,2.519v0A2.519,2.519,0,0,1,2.519,5.038h0A2.519,2.519,0,0,1,0,2.519v0A2.519,2.519,0,0,1,2.519,0Z" transform="translate(95.222 216.301)" fill="#f58c3f"/>
    <path id="長方形_547" data-name="長方形 547" d="M2.519,0h0A2.519,2.519,0,0,1,5.038,2.519v0A2.519,2.519,0,0,1,2.519,5.038h0A2.519,2.519,0,0,1,0,2.519v0A2.519,2.519,0,0,1,2.519,0Z" transform="translate(101.649 216.301)" fill="#f58c3f"/>
    <path id="長方形_548" data-name="長方形 548" d="M2.519,0h0A2.519,2.519,0,0,1,5.038,2.519v0A2.519,2.519,0,0,1,2.519,5.038h0A2.519,2.519,0,0,1,0,2.519v0A2.519,2.519,0,0,1,2.519,0Z" transform="translate(108.075 216.301)" fill="#f58c3f"/>
    <path id="長方形_549" data-name="長方形 549" d="M2.519,0h0A2.519,2.519,0,0,1,5.038,2.519v0A2.519,2.519,0,0,1,2.519,5.038h0A2.519,2.519,0,0,1,0,2.519v0A2.519,2.519,0,0,1,2.519,0Z" transform="translate(114.501 216.301)" fill="#efb838"/>
    <path id="長方形_550" data-name="長方形 550" d="M2.519,0h0A2.519,2.519,0,0,1,5.038,2.519v0A2.519,2.519,0,0,1,2.519,5.038h0A2.519,2.519,0,0,1,0,2.519v0A2.519,2.519,0,0,1,2.519,0Z" transform="translate(120.927 216.301)" fill="#efb838"/>
    <path id="長方形_551" data-name="長方形 551" d="M2.519,0h0A2.519,2.519,0,0,1,5.038,2.519v0A2.519,2.519,0,0,1,2.519,5.038h0A2.519,2.519,0,0,1,0,2.519v0A2.519,2.519,0,0,1,2.519,0Z" transform="translate(127.353 216.301)" fill="#efb838"/>
    <path id="長方形_552" data-name="長方形 552" d="M2.519,0h0A2.519,2.519,0,0,1,5.038,2.519v0A2.519,2.519,0,0,1,2.519,5.038h0A2.519,2.519,0,0,1,0,2.519v0A2.519,2.519,0,0,1,2.519,0Z" transform="translate(133.78 216.301)" fill="#efb838"/>
    <path id="長方形_553" data-name="長方形 553" d="M2.519,0h0A2.519,2.519,0,0,1,5.038,2.519v0A2.519,2.519,0,0,1,2.519,5.038h0A2.519,2.519,0,0,1,0,2.519v0A2.519,2.519,0,0,1,2.519,0Z" transform="translate(140.206 216.301)" fill="#efb838"/>
    <path id="長方形_554" data-name="長方形 554" d="M2.519,0h0A2.519,2.519,0,0,1,5.038,2.519v0A2.519,2.519,0,0,1,2.519,5.038h0A2.519,2.519,0,0,1,0,2.519v0A2.519,2.519,0,0,1,2.519,0Z" transform="translate(146.632 216.301)" fill="#efb838"/>
    <path id="長方形_555" data-name="長方形 555" d="M2.519,0h0A2.519,2.519,0,0,1,5.038,2.519v0A2.519,2.519,0,0,1,2.519,5.038h0A2.519,2.519,0,0,1,0,2.519v0A2.519,2.519,0,0,1,2.519,0Z" transform="translate(153.058 216.301)" fill="#efb838"/>
    <path id="長方形_556" data-name="長方形 556" d="M2.519,0h0A2.519,2.519,0,0,1,5.038,2.519v0A2.519,2.519,0,0,1,2.519,5.038h0A2.519,2.519,0,0,1,0,2.519v0A2.519,2.519,0,0,1,2.519,0Z" transform="translate(159.484 216.301)" fill="#efb838"/>
    <path id="長方形_557" data-name="長方形 557" d="M2.519,0h0A2.519,2.519,0,0,1,5.038,2.519v0A2.519,2.519,0,0,1,2.519,5.038h0A2.519,2.519,0,0,1,0,2.519v0A2.519,2.519,0,0,1,2.519,0Z" transform="translate(165.911 216.301)" fill="#c0c743"/>
    <path id="長方形_558" data-name="長方形 558" d="M2.519,0h0A2.519,2.519,0,0,1,5.038,2.519v0A2.519,2.519,0,0,1,2.519,5.038h0A2.519,2.519,0,0,1,0,2.519v0A2.519,2.519,0,0,1,2.519,0Z" transform="translate(172.337 216.301)" fill="#c0c743"/>
    <path id="長方形_559" data-name="長方形 559" d="M2.519,0h0A2.519,2.519,0,0,1,5.038,2.519v0A2.519,2.519,0,0,1,2.519,5.038h0A2.519,2.519,0,0,1,0,2.519v0A2.519,2.519,0,0,1,2.519,0Z" transform="translate(178.763 216.301)" fill="#c0c743"/>
    <path id="長方形_560" data-name="長方形 560" d="M2.519,0h0A2.519,2.519,0,0,1,5.038,2.519v0A2.519,2.519,0,0,1,2.519,5.038h0A2.519,2.519,0,0,1,0,2.519v0A2.519,2.519,0,0,1,2.519,0Z" transform="translate(185.189 216.301)" fill="#c0c743"/>
    <path id="長方形_561" data-name="長方形 561" d="M2.519,0h0A2.519,2.519,0,0,1,5.038,2.519v0A2.519,2.519,0,0,1,2.519,5.038h0A2.519,2.519,0,0,1,0,2.519v0A2.519,2.519,0,0,1,2.519,0Z" transform="translate(191.615 216.301)" fill="#c0c743"/>
    <path id="長方形_562" data-name="長方形 562" d="M2.519,0h0A2.519,2.519,0,0,1,5.038,2.519v0A2.519,2.519,0,0,1,2.519,5.038h0A2.519,2.519,0,0,1,0,2.519v0A2.519,2.519,0,0,1,2.519,0Z" transform="translate(198.042 216.301)" fill="#c0c743"/>
    <path id="長方形_563" data-name="長方形 563" d="M2.519,0h0A2.519,2.519,0,0,1,5.038,2.519v0A2.519,2.519,0,0,1,2.519,5.038h0A2.519,2.519,0,0,1,0,2.519v0A2.519,2.519,0,0,1,2.519,0Z" transform="translate(204.468 216.301)" fill="#c0c743"/>
    <path id="長方形_564" data-name="長方形 564" d="M2.519,0h0A2.519,2.519,0,0,1,5.038,2.519v0A2.519,2.519,0,0,1,2.519,5.038h0A2.519,2.519,0,0,1,0,2.519v0A2.519,2.519,0,0,1,2.519,0Z" transform="translate(210.894 216.301)" fill="#71d5cb"/>
    <path id="長方形_565" data-name="長方形 565" d="M2.519,0h0A2.519,2.519,0,0,1,5.038,2.519v0A2.519,2.519,0,0,1,2.519,5.038h0A2.519,2.519,0,0,1,0,2.519v0A2.519,2.519,0,0,1,2.519,0Z" transform="translate(217.32 216.301)" fill="#71d5cb"/>
    <path id="長方形_566" data-name="長方形 566" d="M2.519,0h0A2.519,2.519,0,0,1,5.038,2.519v0A2.519,2.519,0,0,1,2.519,5.038h0A2.519,2.519,0,0,1,0,2.519v0A2.519,2.519,0,0,1,2.519,0Z" transform="translate(230.173 216.301)" fill="#71d5cb"/>
    <path id="長方形_567" data-name="長方形 567" d="M2.519,0h0A2.519,2.519,0,0,1,5.038,2.519v0A2.519,2.519,0,0,1,2.519,5.038h0A2.519,2.519,0,0,1,0,2.519v0A2.519,2.519,0,0,1,2.519,0Z" transform="translate(236.599 216.301)" fill="#71d5cb"/>
    <path id="長方形_568" data-name="長方形 568" d="M2.519,0h0A2.519,2.519,0,0,1,5.038,2.519v0A2.519,2.519,0,0,1,2.519,5.038h0A2.519,2.519,0,0,1,0,2.519v0A2.519,2.519,0,0,1,2.519,0Z" transform="translate(30.96 222.597)" fill="#e77a72"/>
    <path id="長方形_569" data-name="長方形 569" d="M2.519,0h0A2.519,2.519,0,0,1,5.038,2.519v0A2.519,2.519,0,0,1,2.519,5.038h0A2.519,2.519,0,0,1,0,2.519v0A2.519,2.519,0,0,1,2.519,0Z" transform="translate(37.387 222.597)" fill="#e77a72"/>
    <path id="長方形_570" data-name="長方形 570" d="M2.519,0h0A2.519,2.519,0,0,1,5.038,2.519v0A2.519,2.519,0,0,1,2.519,5.038h0A2.519,2.519,0,0,1,0,2.519v0A2.519,2.519,0,0,1,2.519,0Z" transform="translate(43.813 222.597)" fill="#e77a72"/>
    <path id="長方形_571" data-name="長方形 571" d="M2.519,0h0A2.519,2.519,0,0,1,5.038,2.519v0A2.519,2.519,0,0,1,2.519,5.038h0A2.519,2.519,0,0,1,0,2.519v0A2.519,2.519,0,0,1,2.519,0Z" transform="translate(50.239 222.597)" fill="#e77a72"/>
    <path id="長方形_572" data-name="長方形 572" d="M2.519,0h0A2.519,2.519,0,0,1,5.038,2.519v0A2.519,2.519,0,0,1,2.519,5.038h0A2.519,2.519,0,0,1,0,2.519v0A2.519,2.519,0,0,1,2.519,0Z" transform="translate(56.665 222.597)" fill="#e77a72"/>
    <path id="長方形_573" data-name="長方形 573" d="M2.519,0h0A2.519,2.519,0,0,1,5.038,2.519v0A2.519,2.519,0,0,1,2.519,5.038h0A2.519,2.519,0,0,1,0,2.519v0A2.519,2.519,0,0,1,2.519,0Z" transform="translate(63.091 222.597)" fill="#e77a72"/>
    <path id="長方形_574" data-name="長方形 574" d="M2.519,0h0A2.519,2.519,0,0,1,5.038,2.519v0A2.519,2.519,0,0,1,2.519,5.038h0A2.519,2.519,0,0,1,0,2.519v0A2.519,2.519,0,0,1,2.519,0Z" transform="translate(127.353 222.597)" fill="#efb838"/>
    <path id="長方形_575" data-name="長方形 575" d="M2.519,0h0A2.519,2.519,0,0,1,5.038,2.519v0A2.519,2.519,0,0,1,2.519,5.038h0A2.519,2.519,0,0,1,0,2.519v0A2.519,2.519,0,0,1,2.519,0Z" transform="translate(133.78 222.597)" fill="#efb838"/>
    <path id="長方形_576" data-name="長方形 576" d="M2.519,0h0A2.519,2.519,0,0,1,5.038,2.519v0A2.519,2.519,0,0,1,2.519,5.038h0A2.519,2.519,0,0,1,0,2.519v0A2.519,2.519,0,0,1,2.519,0Z" transform="translate(140.206 222.597)" fill="#efb838"/>
    <path id="長方形_577" data-name="長方形 577" d="M2.519,0h0A2.519,2.519,0,0,1,5.038,2.519v0A2.519,2.519,0,0,1,2.519,5.038h0A2.518,2.518,0,0,1,0,2.519v0A2.519,2.519,0,0,1,2.519,0Z" transform="translate(146.632 222.597)" fill="#efb838"/>
    <path id="長方形_578" data-name="長方形 578" d="M2.519,0h0A2.519,2.519,0,0,1,5.038,2.519v0A2.519,2.519,0,0,1,2.519,5.038h0A2.519,2.519,0,0,1,0,2.519v0A2.519,2.519,0,0,1,2.519,0Z" transform="translate(153.058 222.597)" fill="#efb838"/>
    <rect id="長方形_579" data-name="長方形 579" width="5.038" height="5.038" rx="2.519" transform="translate(159.484 222.597)" fill="#efb838"/>
    <path id="長方形_580" data-name="長方形 580" d="M2.519,0h0A2.519,2.519,0,0,1,5.038,2.519v0A2.519,2.519,0,0,1,2.519,5.038h0A2.519,2.519,0,0,1,0,2.519v0A2.519,2.519,0,0,1,2.519,0Z" transform="translate(165.911 222.597)" fill="#c0c743"/>
    <path id="長方形_581" data-name="長方形 581" d="M2.519,0h0A2.519,2.519,0,0,1,5.038,2.519v0A2.519,2.519,0,0,1,2.519,5.038h0A2.519,2.519,0,0,1,0,2.519v0A2.519,2.519,0,0,1,2.519,0Z" transform="translate(172.337 222.597)" fill="#c0c743"/>
    <path id="長方形_582" data-name="長方形 582" d="M2.518,0h0A2.519,2.519,0,0,1,5.038,2.519v0A2.519,2.519,0,0,1,2.519,5.038h0A2.519,2.519,0,0,1,0,2.519v0A2.518,2.518,0,0,1,2.518,0Z" transform="translate(178.763 222.597)" fill="#c0c743"/>
    <path id="長方形_583" data-name="長方形 583" d="M2.519,0h0A2.519,2.519,0,0,1,5.038,2.519v0A2.519,2.519,0,0,1,2.519,5.038h0A2.519,2.519,0,0,1,0,2.519v0A2.519,2.519,0,0,1,2.519,0Z" transform="translate(185.189 222.597)" fill="#c0c743"/>
    <path id="長方形_584" data-name="長方形 584" d="M2.519,0h0A2.519,2.519,0,0,1,5.038,2.519v0A2.519,2.519,0,0,1,2.519,5.038h0A2.519,2.519,0,0,1,0,2.519v0A2.519,2.519,0,0,1,2.519,0Z" transform="translate(191.615 222.597)" fill="#c0c743"/>
    <path id="長方形_585" data-name="長方形 585" d="M2.519,0h0A2.519,2.519,0,0,1,5.038,2.519v0A2.519,2.519,0,0,1,2.519,5.038h0A2.519,2.519,0,0,1,0,2.519v0A2.519,2.519,0,0,1,2.519,0Z" transform="translate(198.042 222.597)" fill="#c0c743"/>
    <path id="長方形_586" data-name="長方形 586" d="M2.518,0h0A2.519,2.519,0,0,1,5.038,2.519v0A2.519,2.519,0,0,1,2.519,5.038h0A2.519,2.519,0,0,1,0,2.519v0A2.518,2.518,0,0,1,2.518,0Z" transform="translate(204.468 222.597)" fill="#c0c743"/>
    <rect id="長方形_587" data-name="長方形 587" width="5.038" height="5.037" rx="2.519" transform="translate(30.96 228.895)" fill="#e77a72"/>
    <rect id="長方形_588" data-name="長方形 588" width="5.038" height="5.037" rx="2.519" transform="translate(37.387 228.895)" fill="#e77a72"/>
    <rect id="長方形_589" data-name="長方形 589" width="5.038" height="5.037" rx="2.519" transform="translate(43.813 228.895)" fill="#e77a72"/>
    <rect id="長方形_590" data-name="長方形 590" width="5.038" height="5.037" rx="2.519" transform="translate(50.239 228.895)" fill="#e77a72"/>
    <rect id="長方形_591" data-name="長方形 591" width="5.038" height="5.037" rx="2.519" transform="translate(56.665 228.895)" fill="#e77a72"/>
    <rect id="長方形_592" data-name="長方形 592" width="5.038" height="5.037" rx="2.519" transform="translate(63.091 228.895)" fill="#e77a72"/>
    <rect id="長方形_593" data-name="長方形 593" width="5.038" height="5.037" rx="2.519" transform="translate(82.37 228.895)" fill="#f1a296"/>
    <rect id="長方形_594" data-name="長方形 594" width="5.038" height="5.037" rx="2.519" transform="translate(88.796 228.895)" fill="#f1a296"/>
    <rect id="長方形_595" data-name="長方形 595" width="5.038" height="5.037" rx="2.519" transform="translate(108.075 228.895)" fill="#f1a296"/>
    <rect id="長方形_596" data-name="長方形 596" width="5.038" height="5.037" rx="2.519" transform="translate(114.501 228.895)" fill="#f1a296"/>
    <rect id="長方形_597" data-name="長方形 597" width="5.038" height="5.037" rx="2.519" transform="translate(120.927 228.895)" fill="#f1a296"/>
    <rect id="長方形_598" data-name="長方形 598" width="5.038" height="5.037" rx="2.519" transform="translate(133.78 228.895)" fill="#efb838"/>
    <rect id="長方形_599" data-name="長方形 599" width="5.038" height="5.037" rx="2.519" transform="translate(140.206 228.895)" fill="#efb838"/>
    <rect id="長方形_600" data-name="長方形 600" width="5.038" height="5.037" rx="2.519" transform="translate(146.632 228.895)" fill="#efb838"/>
    <rect id="長方形_601" data-name="長方形 601" width="5.038" height="5.037" rx="2.519" transform="translate(153.058 228.895)" fill="#efb838"/>
    <rect id="長方形_602" data-name="長方形 602" width="5.038" height="5.037" rx="2.519" transform="translate(159.484 228.895)" fill="#efb838"/>
    <rect id="長方形_603" data-name="長方形 603" width="5.038" height="5.037" rx="2.519" transform="translate(172.337 228.895)" fill="#c0c743"/>
    <rect id="長方形_604" data-name="長方形 604" width="5.038" height="5.037" rx="2.519" transform="translate(178.763 228.895)" fill="#c0c743"/>
    <rect id="長方形_605" data-name="長方形 605" width="5.038" height="5.037" rx="2.519" transform="translate(191.615 228.895)" fill="#c0c743"/>
    <rect id="長方形_606" data-name="長方形 606" width="5.038" height="5.038" rx="2.519" transform="translate(43.813 235.192)" fill="#e77a72"/>
    <path id="長方形_607" data-name="長方形 607" d="M2.519,0h0A2.519,2.519,0,0,1,5.038,2.519v0A2.519,2.519,0,0,1,2.519,5.038h0A2.519,2.519,0,0,1,0,2.519v0A2.519,2.519,0,0,1,2.519,0Z" transform="translate(50.239 235.192)" fill="#e77a72"/>
    <rect id="長方形_608" data-name="長方形 608" width="5.038" height="5.038" rx="2.519" transform="translate(56.665 235.192)" fill="#e77a72"/>
    <path id="長方形_609" data-name="長方形 609" d="M2.519,0h0A2.519,2.519,0,0,1,5.038,2.519v0A2.519,2.519,0,0,1,2.519,5.038h0A2.519,2.519,0,0,1,0,2.519v0A2.519,2.519,0,0,1,2.519,0Z" transform="translate(63.091 235.192)" fill="#e77a72"/>
    <path id="長方形_610" data-name="長方形 610" d="M2.519,0h0A2.519,2.519,0,0,1,5.038,2.519v0A2.519,2.519,0,0,1,2.519,5.038h0A2.519,2.519,0,0,1,0,2.519v0A2.519,2.519,0,0,1,2.519,0Z" transform="translate(82.37 235.192)" fill="#f1a296"/>
    <path id="長方形_611" data-name="長方形 611" d="M2.519,0h0A2.519,2.519,0,0,1,5.038,2.519v0A2.519,2.519,0,0,1,2.519,5.038h0A2.519,2.519,0,0,1,0,2.519v0A2.519,2.519,0,0,1,2.519,0Z" transform="translate(88.796 235.192)" fill="#f1a296"/>
    <path id="長方形_612" data-name="長方形 612" d="M2.519,0h0A2.519,2.519,0,0,1,5.038,2.519v0A2.519,2.519,0,0,1,2.519,5.038h0A2.519,2.519,0,0,1,0,2.519v0A2.519,2.519,0,0,1,2.519,0Z" transform="translate(95.222 235.192)" fill="#f1a296"/>
    <path id="長方形_613" data-name="長方形 613" d="M2.519,0h0A2.519,2.519,0,0,1,5.038,2.519v0A2.519,2.519,0,0,1,2.519,5.038h0A2.519,2.519,0,0,1,0,2.519v0A2.519,2.519,0,0,1,2.519,0Z" transform="translate(101.649 235.192)" fill="#f1a296"/>
    <path id="長方形_614" data-name="長方形 614" d="M2.519,0h0A2.519,2.519,0,0,1,5.038,2.519v0A2.519,2.519,0,0,1,2.519,5.038h0A2.519,2.519,0,0,1,0,2.519v0A2.519,2.519,0,0,1,2.519,0Z" transform="translate(108.075 235.192)" fill="#f1a296"/>
    <rect id="長方形_615" data-name="長方形 615" width="5.038" height="5.038" rx="2.519" transform="translate(114.501 235.192)" fill="#f1a296"/>
    <path id="長方形_616" data-name="長方形 616" d="M2.519,0h0A2.519,2.519,0,0,1,5.038,2.519v0A2.519,2.519,0,0,1,2.519,5.038h0A2.519,2.519,0,0,1,0,2.519v0A2.519,2.519,0,0,1,2.519,0Z" transform="translate(120.927 235.192)" fill="#f1a296"/>
    <path id="長方形_617" data-name="長方形 617" d="M2.519,0h0A2.519,2.519,0,0,1,5.038,2.519v0A2.519,2.519,0,0,1,2.519,5.038h0A2.519,2.519,0,0,1,0,2.519v0A2.519,2.519,0,0,1,2.519,0Z" transform="translate(133.78 235.192)" fill="#efb838"/>
    <path id="長方形_618" data-name="長方形 618" d="M2.519,0h0A2.519,2.519,0,0,1,5.038,2.519v0A2.519,2.519,0,0,1,2.519,5.038h0A2.519,2.519,0,0,1,0,2.519v0A2.519,2.519,0,0,1,2.519,0Z" transform="translate(140.206 235.192)" fill="#efb838"/>
    <path id="長方形_619" data-name="長方形 619" d="M2.519,0h0A2.519,2.519,0,0,1,5.038,2.519v0A2.519,2.519,0,0,1,2.519,5.038h0A2.519,2.519,0,0,1,0,2.519v0A2.519,2.519,0,0,1,2.519,0Z" transform="translate(146.632 235.192)" fill="#efb838"/>
    <path id="長方形_620" data-name="長方形 620" d="M2.519,0h0A2.519,2.519,0,0,1,5.038,2.519v0A2.519,2.519,0,0,1,2.519,5.038h0A2.519,2.519,0,0,1,0,2.519v0A2.519,2.519,0,0,1,2.519,0Z" transform="translate(153.058 235.192)" fill="#efb838"/>
    <path id="長方形_621" data-name="長方形 621" d="M2.519,0h0A2.519,2.519,0,0,1,5.038,2.519v0A2.519,2.519,0,0,1,2.519,5.038h0A2.519,2.519,0,0,1,0,2.519v0A2.519,2.519,0,0,1,2.519,0Z" transform="translate(159.484 235.192)" fill="#efb838"/>
    <path id="長方形_622" data-name="長方形 622" d="M2.519,0h0A2.519,2.519,0,0,1,5.038,2.519v0A2.519,2.519,0,0,1,2.519,5.038h0A2.519,2.519,0,0,1,0,2.519v0A2.519,2.519,0,0,1,2.519,0Z" transform="translate(43.813 241.069)" fill="#e77a72"/>
    <rect id="長方形_623" data-name="長方形 623" width="5.038" height="5.038" rx="2.519" transform="translate(50.239 241.069)" fill="#e77a72"/>
    <path id="長方形_624" data-name="長方形 624" d="M2.519,0h0A2.519,2.519,0,0,1,5.038,2.519v0A2.519,2.519,0,0,1,2.519,5.038h0A2.519,2.519,0,0,1,0,2.519v0A2.519,2.519,0,0,1,2.519,0Z" transform="translate(56.665 241.069)" fill="#e77a72"/>
    <path id="長方形_625" data-name="長方形 625" d="M2.519,0h0A2.519,2.519,0,0,1,5.038,2.519v0A2.519,2.519,0,0,1,2.519,5.038h0A2.519,2.519,0,0,1,0,2.519v0A2.519,2.519,0,0,1,2.519,0Z" transform="translate(63.091 241.069)" fill="#e77a72"/>
    <rect id="長方形_626" data-name="長方形 626" width="5.038" height="5.038" rx="2.519" transform="translate(82.37 241.069)" fill="#f1a296"/>
    <rect id="長方形_627" data-name="長方形 627" width="5.038" height="5.038" rx="2.519" transform="translate(88.796 241.069)" fill="#f1a296"/>
    <path id="長方形_628" data-name="長方形 628" d="M2.519,0h0A2.519,2.519,0,0,1,5.038,2.519v0A2.519,2.519,0,0,1,2.519,5.038h0A2.519,2.519,0,0,1,0,2.519v0A2.519,2.519,0,0,1,2.519,0Z" transform="translate(95.222 241.069)" fill="#f1a296"/>
    <path id="長方形_629" data-name="長方形 629" d="M2.519,0h0A2.519,2.519,0,0,1,5.038,2.519v0A2.519,2.519,0,0,1,2.519,5.038h0A2.519,2.519,0,0,1,0,2.519v0A2.519,2.519,0,0,1,2.519,0Z" transform="translate(101.649 241.069)" fill="#f1a296"/>
    <path id="長方形_630" data-name="長方形 630" d="M2.519,0h0A2.519,2.519,0,0,1,5.038,2.519v0A2.519,2.519,0,0,1,2.519,5.038h0A2.519,2.519,0,0,1,0,2.519v0A2.519,2.519,0,0,1,2.519,0Z" transform="translate(108.075 241.069)" fill="#f1a296"/>
    <rect id="長方形_631" data-name="長方形 631" width="5.038" height="5.038" rx="2.519" transform="translate(114.501 241.069)" fill="#f1a296"/>
    <path id="長方形_632" data-name="長方形 632" d="M2.519,0h0A2.519,2.519,0,0,1,5.038,2.519v0A2.519,2.519,0,0,1,2.519,5.038h0A2.519,2.519,0,0,1,0,2.519v0A2.519,2.519,0,0,1,2.519,0Z" transform="translate(120.927 241.069)" fill="#f1a296"/>
    <rect id="長方形_633" data-name="長方形 633" width="5.038" height="5.038" rx="2.519" transform="translate(133.78 241.069)" fill="#efb838"/>
    <path id="長方形_634" data-name="長方形 634" d="M2.519,0h0A2.519,2.519,0,0,1,5.038,2.519v0A2.519,2.519,0,0,1,2.519,5.038h0A2.519,2.519,0,0,1,0,2.519v0A2.519,2.519,0,0,1,2.519,0Z" transform="translate(140.206 241.069)" fill="#efb838"/>
    <path id="長方形_635" data-name="長方形 635" d="M2.519,0h0A2.519,2.519,0,0,1,5.038,2.519v0A2.519,2.519,0,0,1,2.519,5.038h0A2.519,2.519,0,0,1,0,2.519v0A2.519,2.519,0,0,1,2.519,0Z" transform="translate(146.632 241.069)" fill="#efb838"/>
    <rect id="長方形_636" data-name="長方形 636" width="5.038" height="5.038" rx="2.519" transform="translate(153.058 241.069)" fill="#efb838"/>
    <path id="長方形_637" data-name="長方形 637" d="M2.519,0h0A2.519,2.519,0,0,1,5.038,2.519v0A2.519,2.519,0,0,1,2.519,5.038h0A2.519,2.519,0,0,1,0,2.519v0A2.519,2.519,0,0,1,2.519,0Z" transform="translate(159.484 241.069)" fill="#efb838"/>
    <path id="長方形_638" data-name="長方形 638" d="M2.519,0h0A2.519,2.519,0,0,1,5.038,2.519v0A2.519,2.519,0,0,1,2.519,5.038h0A2.519,2.519,0,0,1,0,2.519v0A2.519,2.519,0,0,1,2.519,0Z" transform="translate(43.813 247.366)" fill="#e77a72"/>
    <rect id="長方形_639" data-name="長方形 639" width="5.038" height="5.038" rx="2.519" transform="translate(50.239 247.366)" fill="#e77a72"/>
    <path id="長方形_640" data-name="長方形 640" d="M2.519,0h0A2.519,2.519,0,0,1,5.038,2.519v0A2.519,2.519,0,0,1,2.519,5.038h0A2.519,2.519,0,0,1,0,2.519v0A2.519,2.519,0,0,1,2.519,0Z" transform="translate(56.665 247.366)" fill="#e77a72"/>
    <rect id="長方形_641" data-name="長方形 641" width="5.038" height="5.038" rx="2.519" transform="translate(63.091 247.366)" fill="#e77a72"/>
    <rect id="長方形_642" data-name="長方形 642" width="5.038" height="5.038" rx="2.519" transform="translate(82.37 247.366)" fill="#f1a296"/>
    <rect id="長方形_643" data-name="長方形 643" width="5.038" height="5.038" rx="2.519" transform="translate(88.796 247.366)" fill="#f1a296"/>
    <path id="長方形_644" data-name="長方形 644" d="M2.519,0h0A2.519,2.519,0,0,1,5.038,2.519v0A2.519,2.519,0,0,1,2.519,5.038h0A2.519,2.519,0,0,1,0,2.519v0A2.519,2.519,0,0,1,2.519,0Z" transform="translate(95.222 247.366)" fill="#f1a296"/>
    <path id="長方形_645" data-name="長方形 645" d="M2.519,0h0A2.519,2.519,0,0,1,5.038,2.519v0A2.519,2.519,0,0,1,2.519,5.038h0A2.519,2.519,0,0,1,0,2.519v0A2.519,2.519,0,0,1,2.519,0Z" transform="translate(101.649 247.366)" fill="#f1a296"/>
    <path id="長方形_646" data-name="長方形 646" d="M2.519,0h0A2.519,2.519,0,0,1,5.038,2.519v0A2.519,2.519,0,0,1,2.519,5.038h0A2.519,2.519,0,0,1,0,2.519v0A2.519,2.519,0,0,1,2.519,0Z" transform="translate(108.075 247.366)" fill="#f1a296"/>
    <path id="長方形_647" data-name="長方形 647" d="M2.519,0h0A2.519,2.519,0,0,1,5.038,2.519v0A2.519,2.519,0,0,1,2.519,5.038h0A2.519,2.519,0,0,1,0,2.519v0A2.519,2.519,0,0,1,2.519,0Z" transform="translate(114.501 247.366)" fill="#f1a296"/>
    <path id="長方形_648" data-name="長方形 648" d="M2.519,0h0A2.519,2.519,0,0,1,5.038,2.519v0A2.519,2.519,0,0,1,2.519,5.038h0A2.519,2.519,0,0,1,0,2.519v0A2.519,2.519,0,0,1,2.519,0Z" transform="translate(120.927 247.366)" fill="#f1a296"/>
    <rect id="長方形_649" data-name="長方形 649" width="5.038" height="5.037" rx="2.519" transform="translate(43.813 253.663)" fill="#e77a72"/>
    <rect id="長方形_650" data-name="長方形 650" width="5.038" height="5.037" rx="2.519" transform="translate(50.239 253.663)" fill="#e77a72"/>
    <rect id="長方形_651" data-name="長方形 651" width="5.038" height="5.037" rx="2.519" transform="translate(56.665 253.663)" fill="#e77a72"/>
    <rect id="長方形_652" data-name="長方形 652" width="5.038" height="5.037" rx="2.519" transform="translate(63.091 253.663)" fill="#e77a72"/>
    <rect id="長方形_653" data-name="長方形 653" width="5.038" height="5.037" rx="2.519" transform="translate(82.37 253.663)" fill="#f1a296"/>
    <rect id="長方形_654" data-name="長方形 654" width="5.038" height="5.037" rx="2.519" transform="translate(88.796 253.663)" fill="#f1a296"/>
    <rect id="長方形_655" data-name="長方形 655" width="5.038" height="5.037" rx="2.519" transform="translate(95.222 253.663)" fill="#f1a296"/>
    <rect id="長方形_656" data-name="長方形 656" width="5.038" height="5.037" rx="2.519" transform="translate(114.501 253.663)" fill="#f1a296"/>
    <rect id="長方形_657" data-name="長方形 657" width="5.038" height="5.037" rx="2.519" transform="translate(120.927 253.663)" fill="#f1a296"/>
    <path id="長方形_658" data-name="長方形 658" d="M2.519,0h0A2.519,2.519,0,0,1,5.038,2.519v0A2.519,2.519,0,0,1,2.519,5.038h0A2.519,2.519,0,0,1,0,2.519v0A2.519,2.519,0,0,1,2.519,0Z" transform="translate(43.813 259.96)" fill="#e77a72"/>
    <path id="長方形_659" data-name="長方形 659" d="M2.519,0h0A2.519,2.519,0,0,1,5.038,2.519v0A2.519,2.519,0,0,1,2.519,5.038h0A2.518,2.518,0,0,1,0,2.519v0A2.519,2.519,0,0,1,2.519,0Z" transform="translate(56.665 259.96)" fill="#e77a72"/>
    <path id="長方形_660" data-name="長方形 660" d="M2.519,0h0A2.519,2.519,0,0,1,5.038,2.519v0A2.519,2.519,0,0,1,2.519,5.038h0A2.519,2.519,0,0,1,0,2.519v0A2.519,2.519,0,0,1,2.519,0Z" transform="translate(63.091 259.96)" fill="#e77a72"/>
  </g>
</svg>
