<svg xmlns="http://www.w3.org/2000/svg" width="36" height="36" viewBox="0 0 36 36">
  <g id="グループ_894" data-name="グループ 894" transform="translate(-1072.997 -1702)">
    <rect id="長方形_745" data-name="長方形 745" width="36" height="36" rx="6" transform="translate(1072.997 1702)" fill="#e3cf5f"/>
    <g id="グループ_867" data-name="グループ 867" transform="translate(1072.163 1670.119)">
      <path id="パス_1054" data-name="パス 1054" d="M76.308,56.547a4.84,4.84,0,0,0,4.124-2.437,2.5,2.5,0,0,0,1.688.807,7.374,7.374,0,0,0,6.71,4.74h1.817a7.375,7.375,0,0,0,6.711-4.742,2.482,2.482,0,0,0,1.656-.82,4.834,4.834,0,0,0,4.135,2.453,1.038,1.038,0,0,0,.976-1.088V47.986a4.394,4.394,0,0,0-4.133-4.607H98.562A1.6,1.6,0,0,0,97.1,42.3h-.288a1.47,1.47,0,0,0-.81.25A7.061,7.061,0,0,0,90.648,40H88.831a7.062,7.062,0,0,0-5.358,2.555,1.471,1.471,0,0,0-.824-.258h-.287A1.6,1.6,0,0,0,80.9,43.379H79.465a4.395,4.395,0,0,0-4.133,4.607v7.473A1.038,1.038,0,0,0,76.308,56.547ZM97.2,53.578a.924.924,0,0,1-.142-.013.6.6,0,0,0-.644.413,6.233,6.233,0,0,1-5.765,4.337H88.831a6.232,6.232,0,0,1-5.767-4.343.606.606,0,0,0-.558-.42.566.566,0,0,0-.107.01.762.762,0,0,1-.153.017A1.515,1.515,0,0,1,80.82,51.99v-.75a.911.911,0,0,1,.857-.955h.336a.639.639,0,0,0,.6-.671v-.077A6.035,6.035,0,0,1,87.5,46.891h4.478a6.036,6.036,0,0,1,4.886,2.646v.077a.639.639,0,0,0,.6.671h.15A1.044,1.044,0,0,1,98.6,51.38v.639A1.487,1.487,0,0,1,97.2,53.578Zm5.724-5.592V55.2a3.779,3.779,0,0,1-3.2-2.447,3.222,3.222,0,0,0,.084-.732v-.639a2.61,2.61,0,0,0-.427-1.442s-.007-1.249-.021-1.4a.622.622,0,0,0-.659-.6.656.656,0,0,0-.539.734c.01.109.015.221.015.331v.026c-.034-.01-.068-.021-.1-.029V48.27A9.283,9.283,0,0,0,97.981,47a1.844,1.844,0,0,0,.708-1.472V44.72h1.3A3.115,3.115,0,0,1,102.922,47.986Zm-6.113-4.347H97.1a.412.412,0,0,1,.388.432v.985a8.614,8.614,0,0,0-.691-1.416Zm-7.978-2.3h1.817c3.215,0,5.868,2.735,6.184,6.227a7.022,7.022,0,0,0-4.854-2.02H87.5a7.023,7.023,0,0,0-4.854,2.02C82.963,44.077,85.615,41.342,88.831,41.342Zm-6.47,2.3h.288l.036,0a8.591,8.591,0,0,0-.711,1.471V44.071A.412.412,0,0,1,82.361,43.639Zm-5.825,4.347a3.115,3.115,0,0,1,2.929-3.266h1.3v.809a1.832,1.832,0,0,0,.726,1.487,9.264,9.264,0,0,0-.085,1.253v.692c-.042.006-.083.014-.123.022,0-.106.005-.211.014-.315a.656.656,0,0,0-.539-.734.623.623,0,0,0-.659.6c-.014.153-.021,1.25-.021,1.25a2.451,2.451,0,0,0-.467,1.454v.75a3.224,3.224,0,0,0,.1.811,3.781,3.781,0,0,1-3.184,2.4Z" transform="translate(-70.943)" fill="#fff"/>
      <path id="パス_1055" data-name="パス 1055" d="M210.764,149.963a.9.9,0,1,1-.9-1A.951.951,0,0,1,210.764,149.963Z" transform="translate(-193.972 -99.321)" fill="#fff"/>
      <path id="パス_1056" data-name="パス 1056" d="M283.8,149.963a.9.9,0,1,1-.9-1A.951.951,0,0,1,283.8,149.963Z" transform="translate(-261.203 -99.321)" fill="#fff"/>
      <path id="パス_1057" data-name="パス 1057" d="M217.7,179.957H212.3a.862.862,0,0,0-.67.334,1.08,1.08,0,0,0-.225.779,3.6,3.6,0,0,0,7.195,0,1.083,1.083,0,0,0-.225-.78A.863.863,0,0,0,217.7,179.957ZM215,183.32a2.474,2.474,0,0,1-2.34-2.021h4.68A2.474,2.474,0,0,1,215,183.32Z" transform="translate(-196.204 -127.57)" fill="#fff"/>
    </g>
  </g>
</svg>
