<svg xmlns="http://www.w3.org/2000/svg" width="36" height="36" viewBox="0 0 36 36">
  <g id="グループ_893" data-name="グループ 893" transform="translate(-945.997 -1702)">
    <rect id="長方形_744" data-name="長方形 744" width="36" height="36" rx="6" transform="translate(945.997 1702)" fill="#7eccd3"/>
    <g id="グループ_868" data-name="グループ 868" transform="translate(1056.997 1745.119)">
      <path id="パス_1058" data-name="パス 1058" d="M202.057-23.643a.757.757,0,0,0,.757.757.757.757,0,0,0,.757-.757c0-3.407-1.77-4.734-3.331-5.906-1.463-1.1-2.726-2.044-2.726-4.694a.757.757,0,0,0-.757-.757.757.757,0,0,0-.757.757c0,3.407,1.77,4.734,3.331,5.906C200.794-27.24,202.057-26.293,202.057-23.643Z" transform="translate(-286.757)" fill="#fff"/>
      <path id="パス_1059" data-name="パス 1059" d="M317.514-34.243a.757.757,0,0,0-.757-.757.757.757,0,0,0-.757.757,8.752,8.752,0,0,0,1.641,5.72,7.292,7.292,0,0,1,1.387,4.88.757.757,0,0,0,.757.757.757.757,0,0,0,.757-.757,8.752,8.752,0,0,0-1.641-5.72A7.292,7.292,0,0,1,317.514-34.243Z" transform="translate(-400.699)" fill="#fff"/>
      <path id="パス_1060" data-name="パス 1060" d="M-80.914,235h-24.329a.757.757,0,0,0-.757.757V240.3a.757.757,0,0,0,.757.757h24.329a.757.757,0,0,0,.757-.757v-4.543A.757.757,0,0,0-80.914,235Zm-3.786,1.514v3.029H-95.35v-3.029Zm-19.786,0h7.622v3.029h-7.622Zm22.815,3.029h-1.514v-3.029h1.514Z" transform="translate(0 -256.372)" fill="#fff"/>
    </g>
  </g>
</svg>
