<svg xmlns="http://www.w3.org/2000/svg" width="99" height="99" viewBox="0 0 99 99">
  <g id="グループ_914" data-name="グループ 914" transform="translate(-209 -461)">
    <g id="楕円形_26" data-name="楕円形 26" transform="translate(209 461)" fill="#fff" stroke="#cc1215" stroke-width="1">
      <circle cx="49.5" cy="49.5" r="49.5" stroke="none"/>
      <circle cx="49.5" cy="49.5" r="49" fill="none"/>
    </g>
    <g id="グループ_906" data-name="グループ 906" transform="translate(0 -2)">
      <g id="長方形_766" data-name="長方形 766" transform="translate(234 491)" fill="#cc1215" stroke="#cc1215" stroke-width="1">
        <rect width="50" height="16" stroke="none"/>
        <rect x="0.5" y="0.5" width="49" height="15" fill="none"/>
      </g>
      <g id="長方形_767" data-name="長方形 767" transform="translate(234 499)" fill="#fff" stroke="#cc1215" stroke-width="1">
        <rect width="50" height="34" stroke="none"/>
        <rect x="0.5" y="0.5" width="49" height="33" fill="none"/>
      </g>
      <g id="長方形_768" data-name="長方形 768" transform="translate(266 525)" fill="#fff" stroke="#cc1215" stroke-width="1">
        <rect width="11" height="13" stroke="none"/>
        <rect x="0.5" y="0.5" width="10" height="12" fill="none"/>
      </g>
      <g id="長方形_769" data-name="長方形 769" transform="translate(242 507)" fill="#fff" stroke="#cc1215" stroke-width="1">
        <rect width="16" height="26" stroke="none"/>
        <rect x="0.5" y="0.5" width="15" height="25" fill="none"/>
      </g>
      <rect id="長方形_770" data-name="長方形 770" width="2" height="4" transform="translate(245 519)" fill="#cc1215"/>
      <g id="長方形_771" data-name="長方形 771" transform="translate(262 511)" fill="#fff" stroke="#cc1215" stroke-width="1">
        <rect width="17" height="8" stroke="none"/>
        <rect x="0.5" y="0.5" width="16" height="7" fill="none"/>
      </g>
      <path id="パス_1066" data-name="パス 1066" d="M0,0V7.016" transform="translate(270.5 511.5)" fill="none" stroke="#cc1215" stroke-width="1"/>
    </g>
  </g>
</svg>
