<?xml version="1.0" encoding="utf-8"?>
<!-- Generator: Adobe Illustrator 24.3.0, SVG Export Plug-In . SVG Version: 6.00 Build 0)  -->
<svg version="1.1" id="レイヤー_1" xmlns="http://www.w3.org/2000/svg" xmlns:xlink="http://www.w3.org/1999/xlink" x="0px"
	 y="0px" viewBox="0 0 98 98" style="enable-background:new 0 0 98 98;" xml:space="preserve">
<style type="text/css">
	.st0{opacity:0.599;}
	.st1{fill:#E57403;}
	.st2{fill:none;stroke:#E57403;stroke-width:2;}
	.st3{fill:#FFFFFF;}
	.st4{fill:none;stroke:#E57403;stroke-width:3.0015745;stroke-linecap:round;stroke-linejoin:round;stroke-miterlimit:4.0020995;}
</style>
<g id="グループ_890" transform="translate(-302.997 -992)">
	<g id="長方形_740" transform="translate(302.997 992)" class="st0">
		<path class="st1" d="M12-0.0000067h74c6.6274185,0,12,5.3725824,12,12v74c0,6.6274185-5.3725815,12-12,12H12
			c-6.6274176,0-12-5.3725815-12-12v-74C0,5.3725758,5.3725824-0.0000067,12-0.0000067z"/>
		<path class="st2" d="M12,0.9999933h74c6.0751343,0,11,4.9248676,11,11v74c0,6.0751343-4.9248657,11-11,11H12
			c-6.0751324,0-11-4.9248657-11-11v-74C1,5.924861,5.9248676,0.9999933,12,0.9999933z"/>
	</g>
	<g id="グループ_856" transform="translate(116 -270)">
		<g id="楕円形_24" transform="translate(209.997 1285)">
			<circle class="st3" cx="26" cy="25.9999924" r="26"/>
			<circle class="st2" cx="26" cy="25.9999924" r="25"/>
		</g>
		<path id="パス_1046" class="st4" d="M222.4152374,1309.6090088l12.4153442,9.6500244l15.7300873-16.4443359"/>
	</g>
</g>
</svg>
